<svg xmlns="http://www.w3.org/2000/svg" enable-background="new 0 0 1364 960" viewBox="0 0 1364 960"><path fill="#97d4f2" d="M239.73 127.28c36.26 4.63 61.33 8.71 74.06 33.79 13.79 27.9 27.88 53.73 81.63 47.6 10.74 2.24 15.45 12.85 26.65 12.32 8.01-.38 11.87-6.7 10.64-11.77-4.42-18.24-45.17-24.83-53.42-42.56-4.88-10.5 2.43-23.59-9.49-31.54-9.81-6.54-26.34-5.14-39.91-7.71-28.91-5.46-42.5-28.63-71.08-34.78-17.51-3.54-40.29-.92-51.92-12.09C192.35 97.39 212.41 120.94 239.73 127.28zM471.83 140.6c3.09 3.41 2.62 7.6 1.75 11.46-.8 3.56-1.8 7.31.34 10.67 2.14 3.35 8.89 5.83 13.61 3.9 3.49-1.43 4.28-4.52 3.49-7.14-.79-2.62-2.78-5.05-3.63-7.66-2.07-6.35 2.8-12.76 2.3-19.22-.46-6-6.27-11.56-14.17-14.77-3.44-1.4-8.28-2.92-12.45-2.71-4.65.23-5.19 3.77-5.8 6.11-.98 3.77-.76 7.83 2.73 11.13C463.27 135.45 468.9 137.37 471.83 140.6zM1041.63 274.01c3.77-.49 6.61-2.09 9.21-3.95-.05.22-.09.45-.11.68-.3 3.83 4 6.92 9.09 8.2 5.2 1.31 11.25.67 16.76-.27 4.24-.73 7.09-2.44 10.15-4.49 7.01-4.68 11.79-10.69 12.86-16.97 5.62-1.56 10.3-4.88 9.22-8.65-.8-2.8-4.63-4.96-8.82-5.96-1.91-.45-3.89-.7-5.9-.85-3.49-3.59-8.41-6.54-14.34-8.38-6.28-1.94-14.99-2.37-20.11 1.19-2.67 1.86-3.64 4.28-3.7 6.76-7.45 0-15.02.27-21.57 2.39-13.26 4.29-15.05 16.61-8.63 24.48C1028.78 271.89 1035.26 274.84 1041.63 274.01zM1141.37 251.61l2.39-.21c-.02 3.08 7.31 4.58 10.78 2.47 3.47-2.11 2.7-6.06-.65-8.31-3.18-2.14-8.76-2.96-12.52-1.31C1137.63 245.89 1137.36 250.14 1141.37 251.61zM669.52 138.06c2.15 1.27 5.36 1.37 8.27 1.4 8.38.08 16.77.15 25.15.23 1.72.02 3.51.02 5.03-.46 2.73-.87 3.76-3.01 4.07-4.96 1.02-6.46-3.46-13.43-12.13-16.97-7.14-2.91-17.44-2.91-24.96-.67-6.46 1.93-7.51 6.67-8.02 10.78C666.56 130.46 665.51 135.68 669.52 138.06zM1191.58 513.84c7.67 1.93 16.39 1.05 23.83 3.47 1.94.63 4 1.5 6.09 1.17 1.97-.32 3.16-1.68 3.16-2.97 0-1.3-.94-2.53-2.02-3.64-3.26-3.36-8.07-6.07-13.58-7.86-4.41-1.43-10.66-3.04-15.51-1.8C1185.99 504.15 1182.51 511.56 1191.58 513.84zM158.74 336.49c1.81-.22 3.16-1.15 4.84-1.62 3.36-.92 7.49.14 10.86-.77 3.97-1.07 5.06-4.53 3.49-7.12-2.06-3.4-7.92-5.73-13.58-5.39-3.06.18-5.91 1.14-8.01 2.53-2.29 1.52-2.94 3.13-3.51 5.12-.41 1.42-.83 2.83-.23 4.27C153.33 335.25 155.98 336.82 158.74 336.49zM522.46 80.3c7.9.3 14.59-3.53 14.93-8.56.34-5.03-5.79-9.35-13.69-9.65-7.91-.3-14.59 3.53-14.93 8.56C508.43 75.67 514.56 80 522.46 80.3zM262.45 190.2c-.34 5.03 5.79 9.35 13.69 9.65 7.91.3 14.59-3.53 14.93-8.56.34-5.03-5.79-9.35-13.69-9.65C269.48 181.33 262.79 185.17 262.45 190.2z"/><path fill="#97d4f2" d="M955.12,718.96c1.64-13.6,17.23-25.28,36.36-32.44c3.38-0.39,6.75-0.85,10.09-1.39
			c9.91-1.6,19.47-3.93,28.53-6.88c19.85-1.98,40.12-1.59,60.14-2.28c15-0.52,30.64-1.84,45.13-5.03c2.06,0.87,4.48,1.42,7.11,1.52
			c7.82,0.3,14.43-3.45,14.91-8.4c3.45-1.48,6.76-3.14,9.87-5c34.54-20.63,31.04-55.99,13.83-82.06
			c-11.3-17.13-27.21-33.06-38.42-50.1c8.56,2.54,18.1,4.55,27.12,3.09c4.52-0.73,9.06-2.71,9.67-5.66c0.48-2.3-1.53-4.52-3.59-6.46
			c-9.2-8.66-21.08-16.18-34.74-21.97c-3.6-1.53-7.61-2.96-11.74-3.56c-1.49-17.46,3.94-35.42,4.3-53.08
			c0.41-19.91-7.7-41.43-32.97-51.3c-16.15-6.3-40.16-9.08-43.08-21.49c-3.01-12.78,19.81-22.25,40.46-25.18
			c26.99,5.56,56.18,20.01,80.18,11.37c21.58-7.76,18.62-30.18-0.23-40.8c-18.85-10.62-46.19-12.06-71.06-10.97
			c-19.36,0.85-38.96,2.87-58.2,2.01c-5.3-3.37-9.97-7.29-14.15-11.22c-8.54-8.03-28.02-27.45-43.48-36.59
			c1.73-2.72,3.6-5.42,5.17-8.16c21-36.56-14.7-80.53-70.08-98.1c-55.38-17.56-123.41-11.89-176.62,7.14
			c-25.21,9.01-53.16,21.28-80.65,14.88c-27.21-6.34-37.2-27.43-40.53-45.7c-3.33-18.26-5.36-38.78-26.89-51.21
			c-23.11-1.46-40.9,13.5-44.63,28.03c-3.73,14.53,1.53,29.54-0.71,44.22c-2.25,14.67-16.11,30.61-39.16,32
			c-6.85,0.41-13.93-0.52-20.57,0.58c-25.56,4.22-18.6,28.42-27.78,44.16c-9.48,16.25-39.89,23.85-67.23,22.85
			c-27.34-1-53.03-8.51-79.13-14.04c-26.09-5.53-55.24-9.04-80.22-2.18c-41.49,11.39-53.12,45.77-47.82,74.57
			c5.3,28.8,21.9,57.5,15.18,86.05c-4.57,19.43-19.65,37.06-28.45,55.85c-7.96,16.99-9.87,36.87,4.47,51.87
			c2.46,16.63,12.21,32.37,27.52,45.14c-11.1,5.2-29.75,5.96-44.52,3.75c-21.47-3.23-46.07-8.85-63.66-0.64
			c-14.39,8.02,2.01,23.88,20.68,27.15c18.67,3.27,39.63,0.89,56.65,6.84c7.23,2.53,12.89,6.26,17.43,10.61
			c-3.82-0.15-7.64-0.42-11.43-0.6c-9.46-0.45-19.76-0.2-27.97,3.45c-3.98,1.77-7.45,4.72-6.78,7.66c0.52,2.3,3.36,3.92,6.14,5.28
			c4.83,2.35,9.97,4.44,15.36,6.25c-2.49-0.46-5.08-0.74-7.6-0.92c-4.33-0.31-7.76,0.64-11.53,1.85c-1.44,0.46-2.83,0.98-4.17,1.54
			c-1.22-0.74-2.96-1.21-5.26-1.21c-8.09-0.02-15.99,2.88-24.08,2.35c-2.11-0.14-4.43-0.48-6.27,0.33
			c-1.73,0.76-2.29,2.34-1.74,3.57c0.55,1.23,1.96,2.17,3.45,2.97c4.51,2.41,10.22,3.85,16.2,4.24c0.63,0.04,1.28,0.08,1.96,0.1
			c-0.24,0.42-0.46,0.84-0.66,1.26c-4.09,8.63-0.13,18.69,9.93,25.21c5.14,3.33,13.21,5.8,19.58,3.63c5.55-1.89,7.28-6.4,7.6-10.43
			c0.31-4.03-0.13-8.33,3.08-11.77c3.5-3.77,10.84-5.85,13.07-10c1.91-3.56-0.87-7.51-5.16-9.93c-0.34-0.19-0.71-0.36-1.07-0.53
			c6.27,1.74,12.82,3.13,19.55,4.11c5.01,0.74,10.57,1.19,15.54,0.17c6.75,13.91,17.14,33.93,27.18,40.82
			c8.11,5.57,52.66,15.94,87.47,20.57c1.67,1.76,4.34,3.35,7.64,3.23c1.97-0.07,3.76-0.77,5.14-1.76
			c14.41,1.37,25.56,1.26,29.06-1.33c0,0,1.68,0.14,4.76,0.38c0.16,1.33,0.16,2.7-0.03,4.1c-2.39,32.66-27.03,15.59-27.68,27.21
			c-0.65,11.62,1.73,24.58-10.16,33.87c-26.67,20.86-85.73-2.81-113.59,17.4c-17.19,12.47-4.9,33.04,17.47,38.65
			c22.37,5.61,48.91,0.51,72.05-6.41c23.14-6.92,45.81-15.79,70.49-18.1c24.68-2.31,52.67,4.46,58.32,19.78
			c2.75,7.44-0.15,15.5-1.03,23.33c-4.46,39.65,47.99,72.92,107.95,76.47c59.96,3.55,122.1-17.93,164.54-48.57
			c20.1-14.52,41.43-32.77,70.22-33.21c28.5-0.43,46.89,17.22,57.77,33.76c10.88,16.54,21.48,35.52,47.16,42.21
			c22.54-4.08,33.09-22.49,30.48-37.16c-2.61-14.67-13.95-27.66-18.02-42.11c-4.07-14.45,2.34-32.85,23.62-39.62
			c6.32-2.01,13.43-2.81,19.27-5.42C969.89,757.38,953.06,736.06,955.12,718.96z"/><path fill="#97d4f2" d="M1212.77 755.51c-36.36 4.19-61.87 6.25-84.55-14.53-24.88-23.21-49.16-44.38-97.57-25.84-11.14.41-20.09-8.54-30.49-5.38-7.43 2.26-8.42 9.17-5.11 13.69 11.91 16.26 53.35 12.86 68.67 27.74 9.07 8.8 7.67 22.96 22.34 27.68 12.07 3.89 27.16-1.35 41.12-2.14 29.73-1.66 52.42 17.1 82.13 16.17 18.11-.79 38.61-8.67 54.36-.81C1270.34 772.64 1241.36 755.05 1212.77 755.51zM1001.67 802.82c-4.42-2.17-10.57-2.65-14.72-5.03-4.38-2.5-5.7-6.59-6.51-10.46-.75-3.56-1.38-7.36-4.83-10.04-3.45-2.68-10.9-3.42-14.56-.47-2.71 2.18-2.15 5.3-.29 7.6 1.86 2.3 4.78 4.13 6.69 6.41 4.65 5.54 2.74 12.77 5.95 18.78 2.98 5.58 10.83 9.48 19.69 10.66 3.85.51 9.09.81 12.96-.37 4.31-1.32 3.33-4.81 2.92-7.17C1008.3 808.93 1006.37 805.13 1001.67 802.82zM407.53 807.86c-4.44-2.8-11.84-4.06-17.53-1.76-5.73 2.31-7.57 7.04-10.44 10.99-3.34 4.61-8.82 8.67-15.6 11.26-6.22 2.37-13.35 3.47-19.33 6.11-5.98 2.63-10.67 7.81-7.6 11.7 1.94 2.46 6.49 3.61 10.89 3.57 4.4-.05 8.75-1.08 12.98-2.11 8.72-2.11 17.44-4.22 26.17-6.33 8.09-1.96 16.52-4.05 22.63-8.15C420.45 825.92 416.94 813.8 407.53 807.86zM304.85 850.95l-2.18.76c-1.29-2.92-8.87-2.61-11.28.21s0 6.39 4.13 7.73c3.93 1.28 9.56.73 12.43-1.72C310.82 855.48 309.28 851.39 304.85 850.95zM800.49 847c-2.58-.7-5.66-.03-8.44.63-7.99 1.91-15.97 3.82-23.96 5.73-1.64.39-3.34.81-4.58 1.63-2.23 1.47-2.29 3.75-1.76 5.67 1.76 6.37 8.96 11.92 18.68 13.22 8.01 1.07 17.77-1.37 23.96-5.27 5.32-3.36 4.31-8.1 3.05-12.12C806.5 853.51 805.29 848.3 800.49 847zM1201.15 537.87c-1.62.63-2.51 1.84-3.91 2.68-2.79 1.67-7.17 1.64-9.98 3.3-3.31 1.95-2.89 5.49-.31 7.58 3.39 2.74 9.94 3.56 15.16 1.9 2.82-.9 5.12-2.48 6.53-4.29 1.53-1.98 1.46-3.66 1.16-5.69-.21-1.44-.41-2.88-1.59-4.1C1206.8 537.76 1203.62 536.91 1201.15 537.87zM964.41 866.99c-7.63 1.59-12.35 6.8-10.55 11.66 1.8 4.85 9.45 7.5 17.07 5.91 7.63-1.59 12.35-6.8 10.55-11.66C979.68 868.05 972.04 865.4 964.41 866.99zM1147.54 695.28c-7.63 1.59-12.35 6.8-10.55 11.66 1.8 4.85 9.45 7.5 17.07 5.91 7.63-1.59 12.35-6.8 10.55-11.66C1162.81 696.34 1155.16 693.7 1147.54 695.28zM132.41 469.55c7.63-1.59 12.35-6.8 10.55-11.66-1.8-4.85-9.45-7.5-17.07-5.91-7.63 1.59-12.35 6.8-10.55 11.66C117.14 468.49 124.78 471.13 132.41 469.55z"/><path fill="#dfe4e8" d="M757.61,861.3c-50.11,0-98.28-16.48-137.62-46.76c-12.12,9.98-27.27,15.71-43.33,16.11
			c-2.05,0.05-4.06,0.08-6.07,0.08c-67.22,0-126.58-27.32-176.43-81.19c-47.67-51.53-75.3-115.45-90.07-160.01
			c-0.44-1.32-0.79-2.64-1.15-4.02c-0.64-2.45-1.44-5.5-2.66-7.52c-0.72-1.19-1.06-1.49-2.73-1.7l-0.15-0.02
			c-0.32-0.04-0.86-0.1-1.6-0.1c-0.38,0-0.77,0.01-1.18,0.04c-1.61,0.1-3.22,0.15-4.82,0.15c-5.84,0-11.89-0.68-17.98-2.01
			c-8.41-1.84-16.86-4.87-25.09-9.03c-19.73-9.89-37.54-25.72-48.8-43.4c-13.81-21.68-16.87-44.29-8.64-63.66
			c1.86-4.44,4.34-8.7,7.39-12.67l0.77-1.01c11.29-14.73,28.36-22.84,48.08-22.84c27.27,0,58.9,15.73,80.59,40.08
			c6.12,6.83,11.25,14.2,15.21,21.86c3.66,7.06,6.25,14.29,7.7,21.49c0.28,1.43,0.58,2.23,0.73,2.59l0.12,0.28
			c0.62,1.51,0.99,1.75,2.31,2.13c2.19,0.63,5.26,0.64,6.79,0.64c0.02,0,2.26-0.01,2.26-0.01c0.97,0,2.12,0.01,3.3,0.09
			c8.74,0.59,17.39,1.35,25.89,2.26c5.68-67.82,32.43-129.67,55.11-171.28c0.67-1.23,1.39-2.37,2.16-3.59
			c1.35-2.14,3.03-4.81,3.68-7.08c0.38-1.33,0.37-1.79-0.62-3.15l-0.09-0.13c-0.31-0.44-0.89-1.16-1.85-2.06
			c-5.38-5.06-10.15-11.08-14.22-17.93c-4.4-7.4-7.95-15.64-10.54-24.5c-6.25-21.17-6.84-44.98-1.61-65.29
			c6.41-24.89,20.83-42.56,40.6-49.78c4.51-1.67,9.33-2.77,14.32-3.26l1.27-0.12c1.94-0.19,3.9-0.29,5.82-0.29
			c16.75,0,32.06,7.08,44.28,20.47c18.21,19.96,28.08,53.56,25.14,85.6c-0.82,9.14-2.7,17.92-5.58,26.04
			c-2.66,7.49-6.17,14.32-10.44,20.3c-0.85,1.18-1.23,1.95-1.39,2.3l-0.13,0.28c-0.68,1.49-0.61,1.92,0.02,3.14
			c1.09,2.13,3.24,4.42,4.97,6.25c1.02,1.08,1.99,2.11,2.93,3.26c23.78,29.15,43.42,58.14,58.78,86.69
			c7.76-45.45,25.36-94.14,52.66-145.47c0.72-1.34,1.46-2.53,2.26-3.8c1.34-2.13,3.01-4.79,3.65-7.05c0.39-1.36,0.38-1.81-0.58-3.13
			l-0.18-0.25c-0.22-0.32-0.75-0.99-1.79-1.97c-5.37-5.05-10.15-11.07-14.22-17.92c-4.4-7.4-7.95-15.64-10.54-24.5
			c-9.6-32.51-5.69-68.57,9.96-91.8c10.52-15.61,25.5-24.79,43.32-26.54l1.27-0.12c1.94-0.19,3.89-0.29,5.8-0.29
			c3,0,5.99,0.24,8.88,0.7c20.79,3.24,38.36,17.78,49.49,40.94c9.08,18.9,13.12,42.38,11.1,64.41c-0.81,9.13-2.69,17.91-5.58,26.03
			c-2.66,7.49-6.17,14.33-10.44,20.3c-0.79,1.11-1.22,1.92-1.44,2.42l-0.06,0.14c-0.7,1.53-0.62,1.98,0.02,3.24
			c1.06,2.08,3.23,4.37,4.97,6.2c0.99,1.04,1.92,2.03,2.84,3.13c19.41,23.31,36.34,47.5,50.5,72.17
			c41.8-30.8,95.96-54.76,161.38-71.36c1.47-0.37,2.86-0.62,4.33-0.88c2.48-0.44,5.57-0.99,7.67-2.04c1.27-0.63,1.6-0.93,1.93-2.53
			l0.07-0.3c0.09-0.38,0.23-1.22,0.25-2.64c0.13-7.38,1.38-14.97,3.71-22.58c2.51-8.23,6.23-16.4,11.05-24.27
			c16.66-27.38,49.21-55.04,84.33-55.04c14.78,0,28.3,5.17,39.1,14.95l0.95,0.86c3.72,3.36,6.93,7.11,9.56,11.14
			c11.58,17.57,12.63,40.36,2.96,64.17c-7.89,19.43-22.55,38.2-40.23,51.52c-7.31,5.54-15.07,10.05-23.02,13.37
			c-7.33,3.07-14.75,5.06-22.04,5.92c-1.35,0.16-2.24,0.39-2.76,0.56l-0.15,0.05c-1.6,0.51-1.88,0.87-2.38,2.19
			c-0.82,2.19-1.06,5.33-1.25,7.85c-0.11,1.43-0.21,2.78-0.41,4.2c-4.8,34.28-16.03,88.92-41.95,141.61
			c9.68-7.17,19.81-14.22,30.36-21.13c1.28-0.83,2.5-1.52,3.81-2.24c2.2-1.22,4.94-2.75,6.59-4.42c1-1.01,1.21-1.4,1-3.02
			l-0.04-0.31c-0.04-0.38-0.18-1.23-0.62-2.59c-2.27-7.02-3.56-14.59-3.83-22.55c-0.3-8.6,0.56-17.54,2.56-26.55
			c8.78-40.08,40.19-82.74,81.08-82.74c7.72,0,15.33,1.58,22.62,4.71l1.17,0.5c4.61,1.98,8.87,4.48,12.66,7.43
			c16.67,12.86,25.07,34.06,23.66,59.73c-1.15,20.94-8.91,43.46-21.3,61.79c-5.11,7.61-10.99,14.4-17.43,20.13
			c-5.94,5.29-12.31,9.58-18.93,12.76c-1.23,0.59-1.99,1.1-2.42,1.42l-0.13,0.1c-1.35,1-1.5,1.44-1.54,2.85
			c-0.07,2.33,0.73,5.38,1.37,7.83c0.36,1.39,0.71,2.7,0.98,4.11c9.09,46.8,16.35,117.12-0.73,186.11
			c-17.9,72.31-57.85,125.33-118.72,157.6c-10.21,5.41-21.71,8.26-33.26,8.26c0,0,0,0,0,0c-9.7,0-19.14-1.94-28.06-5.76
			l-36.31-15.55c-3.32-1.42-6.51-3.08-9.54-4.97C854.12,845.39,806.63,861.3,757.61,861.3z"/><path fill="#fff2db" d="M812.22,597.5c-15.27,2.4-30.78-2.26-42.23-12.62l-29.28-26.51c-5.78-5.23-10.23-11.67-13.09-18.73
				c-2.8-6.9-4.09-14.43-3.66-22.05c7.96-139.02,130.62-204.01,247.31-233.62c3.03-0.76,9.73-1.3,15.96-4.38
				c5.58-2.75,10.79-7.55,12.65-16.36c0.46-2.03,0.71-4.27,0.75-6.75c0.1-5.62,1.1-11.35,2.83-17.03
				c2.05-6.71,5.11-13.35,8.98-19.68c21.13-34.73,65.72-60.29,92.89-35.7l0.94,0.86c2.47,2.24,4.56,4.68,6.24,7.27
				c16.99,25.69-3.05,66.47-32.56,88.7c-5.91,4.48-12.22,8.18-18.69,10.89c-5.48,2.29-11.08,3.85-16.66,4.51
				c-2.46,0.28-4.69,0.77-6.64,1.41c-8.6,2.74-12.84,8.38-15.05,14.19c-2.45,6.51-2.32,13.23-2.76,16.34
				C1004.77,438.15,949.77,575.79,812.22,597.5z"/><path fill="#d94a3c" d="M1022.92 311.9l-35.69-32.31c5.58-2.75 10.79-7.55 12.65-16.36l38.08 34.48C1029.37 300.45 1025.12 306.09 1022.92 311.9zM1079.96 280.9c-5.91 4.48-12.22 8.18-18.69 10.89l-57.81-52.33c2.05-6.71 5.11-13.35 8.98-19.68L1079.96 280.9z"/><path fill="#f0dec9" d="M812.22,597.5c-15.27,2.4-30.78-2.26-42.23-12.62l-29.28-26.51c-5.78-5.23-10.23-11.67-13.09-18.73
				c175.04,45.03,267.09-126.12,276.67-210.17c3.03-26.62-8.74-42.36-8.74-42.36c75.02,16.45,124.49-68.64,116.97-94.92
				c16.99,25.69-3.05,66.47-32.56,88.7c-5.91,4.48-12.22,8.18-18.69,10.89c-5.48,2.29-11.08,3.85-16.66,4.51
				c-2.46,0.28-4.69,0.77-6.64,1.41c-8.6,2.74-12.84,8.38-15.05,14.19c-2.45,6.51-2.32,13.23-2.76,16.34
				C1004.77,438.15,949.77,575.79,812.22,597.5z"/><ellipse cx="849.64" cy="404.85" fill="#bcbec0" rx="97.72" ry="40.67" transform="rotate(-42.637 849.581 404.827)"/><path fill="#f7eadf" d="M830.57,593.8c-5.95,1.48-12.07,2.71-18.36,3.7c-15.27,2.4-30.78-2.26-42.23-12.63l-29.28-26.5
				c-5.78-5.24-10.23-11.68-13.09-18.73c-2.8-6.89-4.1-14.43-3.66-22.05c4.17-73.04,40.02-125.64,90.02-163.4
				c11.58,22.47,21.72,47.08,28.67,73.21C858.66,487.65,854.59,543.47,830.57,593.8z"/><ellipse cx="1051.72" cy="224.82" fill="#bcbec0" rx="51.41" ry="21.4" transform="rotate(-45.098 1051.737 224.83)"/><path fill="#fff2db" d="M990.85,816.5c-13.66,7.23-29.85,7.87-44.04,1.79l-36.31-15.55c-7.17-3.07-13.47-7.71-18.47-13.46
				c-4.89-5.61-8.56-12.32-10.62-19.66c-37.65-134.06,57.23-235.38,157.97-301.31c2.62-1.71,8.78-4.39,13.67-9.33
				c4.39-4.41,7.75-10.65,6.64-19.58c-0.22-2.06-0.72-4.27-1.49-6.62c-1.73-5.34-2.65-11.09-2.85-17.02
				c-0.24-7.01,0.49-14.29,2.1-21.53c8.7-39.72,42.56-78.38,76.24-63.95l1.17,0.5c3.07,1.31,5.84,2.94,8.27,4.84
				c24.42,18.78,18.72,63.85-1.96,94.47c-4.14,6.16-8.9,11.71-14.14,16.37c-4.44,3.95-9.23,7.24-14.29,9.68
				c-2.23,1.07-4.18,2.26-5.82,3.49c-7.24,5.38-9.42,12.1-9.62,18.31c-0.21,6.95,2.11,13.27,2.7,16.35
				C1121.17,603.22,1113.88,751.27,990.85,816.5z"/><path fill="#d94a3c" d="M1097.31 477.92l-44.25-18.96c4.39-4.41 7.75-10.65 6.64-19.58l47.22 20.23C1099.69 465 1097.5 471.71 1097.31 477.92zM1141.18 430.07c-4.14 6.16-8.9 11.71-14.14 16.37l-71.68-30.71c-.24-7.01.49-14.29 2.1-21.53L1141.18 430.07z"/><path fill="#f0dec9" d="M990.85,816.5c-13.66,7.23-29.85,7.87-44.04,1.79l-36.31-15.55c-7.17-3.07-13.47-7.71-18.47-13.46
				c180.17-14.3,211.61-206.08,193.36-288.67c-5.78-26.16-22.03-37.22-22.03-37.22c76.29-8.82,95.43-105.37,79.78-127.78
				c24.42,18.78,18.72,63.85-1.96,94.47c-4.14,6.16-8.9,11.71-14.14,16.37c-4.44,3.95-9.23,7.24-14.29,9.68
				c-2.23,1.07-4.18,2.26-5.82,3.49c-7.24,5.38-9.42,12.1-9.62,18.31c-0.21,6.95,2.11,13.27,2.7,16.35
				C1121.17,603.22,1113.88,751.27,990.85,816.5z"/><ellipse cx="963.64" cy="622.15" fill="#bcbec0" rx="97.72" ry="40.67" transform="rotate(-61.603 963.573 622.124)"/><ellipse cx="1096.25" cy="386.21" fill="#bcbec0" rx="51.41" ry="21.4" transform="rotate(-64.063 1096.192 386.208)"/><g><path fill="#fff2db" d="M469.76,691.61c10.84,11.02,26.07,16.52,41.44,15.02l39.31-3.85c7.76-0.76,15.17-3.28,21.67-7.24
				c6.35-3.87,11.88-9.15,16.07-15.53c76.42-116.41,16.61-241.67-59.49-334.97c-1.98-2.42-7.05-6.84-10.21-13.03
				c-2.85-5.53-4.17-12.5-0.41-20.67c0.84-1.9,1.98-3.85,3.42-5.87c3.26-4.57,5.88-9.77,7.87-15.36c2.35-6.61,3.85-13.77,4.51-21.16
				c3.72-40.49-16.87-87.58-53.34-84.01l-1.27,0.12c-3.32,0.33-6.45,1.04-9.34,2.12c-28.95,10.52-37.15,55.21-26.69,90.64
				c2.08,7.12,4.94,13.85,8.53,19.88c3.03,5.1,6.61,9.7,10.7,13.55c1.8,1.69,3.3,3.41,4.49,5.09c5.27,7.32,5.33,14.38,3.63,20.36
				c-1.91,6.69-6.02,12.01-7.52,14.77C410.02,448.92,372.21,592.24,469.76,691.61z"/><ellipse cx="554.46" cy="514.58" fill="#bcbec0" rx="40.67" ry="97.72" transform="rotate(-10.796 554.545 514.567)"/><path fill="#d94a3c" d="M470.65 336.7l47.91-4.69c-2.85-5.53-4.17-12.5-.41-20.67l-51.13 5.01C472.29 323.66 472.34 330.72 470.65 336.7zM443.3 277.82c2.08 7.12 4.94 13.85 8.53 19.88l77.61-7.6c2.35-6.61 3.85-13.77 4.51-21.16L443.3 277.82z"/><path fill="#f0dec9" d="M469.76,691.61c10.84,11.02,26.07,16.52,41.44,15.02l39.31-3.85c7.76-0.76,15.17-3.28,21.67-7.24
				c-167.41-68.1-139.41-260.41-97.04-333.62c13.42-23.19,32.25-28.82,32.25-28.82c-70.05-31.47-59.11-129.29-37.41-145.92
				c-28.95,10.52-37.15,55.21-26.69,90.64c2.08,7.12,4.94,13.85,8.53,19.88c3.03,5.1,6.61,9.7,10.7,13.55
				c1.8,1.69,3.3,3.41,4.49,5.09c5.27,7.32,5.33,14.38,3.63,20.36c-1.91,6.69-6.02,12.01-7.52,14.77
				C410.02,448.92,372.21,592.24,469.76,691.61z"/><path fill="#f7eadf" d="M617.62,614c-5.54,22.12-15.07,44.22-29.37,66c-4.2,6.37-9.73,11.65-16.08,15.52
				c-6.5,3.97-13.9,6.49-21.66,7.24l-39.31,3.86c-15.38,1.5-30.61-3.99-41.44-15.02c-49.95-50.88-64.41-113.28-59.5-175.15
				C503.05,529.57,572.95,562.59,617.62,614z"/><ellipse cx="499.38" cy="249.6" fill="#bcbec0" rx="21.4" ry="51.41" transform="rotate(-8.35 499.24 249.61)"/></g><g><path fill="#fff2db" d="M576.15,810.63c15.45-0.39,29.87-7.77,39.27-20.02l24.03-31.35c4.74-6.19,7.96-13.32,9.5-20.78
				c1.51-7.29,1.42-14.93-0.37-22.34C615.7,580.82,483.34,539,363.22,530.89c-3.12-0.21-9.81,0.48-16.49-1.44
				c-5.99-1.7-11.98-5.49-15.39-13.82c-0.82-1.91-1.47-4.08-1.95-6.5c-1.11-5.51-3.12-10.97-5.85-16.24
				c-3.22-6.23-7.43-12.21-12.38-17.74c-27.04-30.36-75.51-47.47-97.8-18.39l-0.78,1.01c-2.03,2.65-3.64,5.43-4.83,8.27
				c-12.08,28.33,14.97,64.84,48,81.39c6.62,3.34,13.5,5.85,20.35,7.34c5.8,1.27,11.6,1.79,17.2,1.43c2.47-0.16,4.75-0.08,6.79,0.19
				c8.95,1.14,14.14,5.93,17.35,11.25c3.59,5.96,4.66,12.6,5.66,15.57C358.04,688.58,436.94,814.06,576.15,810.63z"/><path fill="#d94a3c" d="M317.44 567.66l29.28-38.21c-5.99-1.7-11.98-5.49-15.39-13.82l-31.25 40.77C309.04 557.56 314.23 562.34 317.44 567.66zM255.75 547.44c6.62 3.34 13.5 5.85 20.35 7.34l47.43-61.89c-3.22-6.23-7.43-12.21-12.38-17.74L255.75 547.44z"/><path fill="#f0dec9" d="M576.15,810.63c15.45-0.39,29.87-7.77,39.27-20.02l24.03-31.35c4.74-6.19,7.96-13.32,9.5-20.78
				c-164.06,75.82-285.44-75.95-310-156.89c-7.78-25.64,0.96-43.24,0.96-43.24c-70.82,29.69-134.82-45.09-132.15-72.3
				c-12.08,28.33,14.97,64.84,48,81.39c6.62,3.34,13.5,5.85,20.35,7.34c5.8,1.27,11.6,1.79,17.2,1.43c2.47-0.16,4.75-0.08,6.79,0.19
				c8.95,1.14,14.14,5.93,17.35,11.25c3.59,5.96,4.66,12.6,5.66,15.57C358.04,688.58,436.94,814.06,576.15,810.63z"/><ellipse cx="504.64" cy="627.88" fill="#bcbec0" rx="40.67" ry="97.72" transform="rotate(-57.737 504.677 627.903)"/><ellipse cx="273.43" cy="487.19" fill="#bcbec0" rx="21.4" ry="51.41" transform="rotate(-55.278 273.449 487.219)"/></g><g><path fill="#fff2db" d="M798.61,611.49c-8.49,12.92-22.36,21.27-37.73,22.78l-39.31,3.86c-7.76,0.76-15.52-0.27-22.66-2.9
				c-6.99-2.57-13.43-6.67-18.78-12.11c-97.58-99.34-63.24-233.84-6.72-340.14c1.47-2.76,5.58-8.08,7.49-14.77
				c1.72-5.98,1.66-13.07-3.61-20.36c-1.19-1.7-2.69-3.4-4.49-5.09c-4.09-3.85-7.67-8.44-10.7-13.54
				c-3.59-6.02-6.45-12.76-8.53-19.88c-11.51-38.99-0.46-89.19,36.01-92.77l1.27-0.12c3.32-0.33,6.53-0.23,9.58,0.26
				c30.44,4.69,47.16,46.94,43.79,83.73c-0.66,7.39-2.16,14.55-4.5,21.16c-1.99,5.6-4.6,10.8-7.86,15.37
				c-1.44,2.01-2.58,3.99-3.42,5.87c-3.75,8.2-2.43,15.14,0.39,20.68c3.17,6.19,8.24,10.61,10.24,13.03
				C810.07,361.82,875.01,495.07,798.61,611.49z"/><path fill="#d94a3c" d="M728.8 263.51l-47.91 4.7c1.72-5.98 1.66-13.07-3.61-20.36l51.13-5.02C724.66 251.04 725.98 257.98 728.8 263.51zM744.2 200.44c-.66 7.39-2.16 14.55-4.5 21.16l-77.6 7.62c-3.59-6.02-6.45-12.76-8.53-19.88L744.2 200.44z"/><path fill="#f0dec9" d="M798.61,611.49c-8.49,12.92-22.36,21.27-37.73,22.78l-39.31,3.86c-7.76,0.76-15.52-0.27-22.66-2.9
				c151-99.32,86.17-282.53,30.38-346.11c-17.67-20.14-37.23-22.01-37.23-22.01c62.6-44.48,32.87-138.31,8.35-150.41
				c30.44,4.69,47.16,46.94,43.79,83.73c-0.66,7.39-2.16,14.55-4.5,21.16c-1.99,5.6-4.6,10.8-7.86,15.37
				c-1.44,2.01-2.58,3.99-3.42,5.87c-3.75,8.2-2.43,15.14,0.39,20.68c3.17,6.19,8.24,10.61,10.24,13.03
				C810.07,361.82,875.01,495.07,798.61,611.49z"/><ellipse cx="681.14" cy="454.29" fill="#bcbec0" rx="40.67" ry="97.72" transform="matrix(1 -.00697 .00697 1 -3.15 4.758)"/><ellipse cx="683.69" cy="183.65" fill="#bcbec0" rx="21.4" ry="51.41" transform="rotate(-2.86 683.562 183.622)"/></g><g><circle cx="757.61" cy="635.39" r="228.39" fill="#dfe4e8"/><linearGradient id="a" x1="818.217" x2="637.251" y1="497.469" y2="909.267" gradientUnits="userSpaceOnUse"><stop offset="0" stop-color="#326b8e"/><stop offset="1" stop-color="#183d5b"/></linearGradient><circle cx="757.61" cy="635.39" r="205.87" fill="url(#a)"/><path fill="#bad1db" d="M932.56,526.85c1.79,10.93,2.74,22.15,2.74,33.59c0,113.7-92.17,205.87-205.87,205.87
				c-73.86,0-138.63-38.91-174.95-97.34c16.04,97.72,100.87,172.29,203.13,172.29c113.7,0,205.87-92.17,205.87-205.87
				C963.48,595.55,952.15,558.37,932.56,526.85z"/><path fill="#999" d="M744.42,653.78c-76.06,24.08-152.2,8.26-192.03-34.78c8.35-106.04,97.03-189.49,205.23-189.49
				c44.69,0,86.05,14.25,119.8,38.44c0.07,0.22,0.13,0.43,0.21,0.65C900.33,540.37,840.7,623.29,744.42,653.78z"/><path fill="#123e5b" d="M914.03,537.86c11.2,10.8,15.32,24.69,9.2,31.04c-2.34,2.43-5.83,3.39-9.86,3.06
					c-6.56-0.52-14.56-4.44-21.49-11.12s-11.14-14.54-11.9-21.07c-0.48-4.02,0.36-7.54,2.7-9.97
					C888.8,523.45,902.83,527.06,914.03,537.86z"/><path fill="#245277" d="M909.47,542.59c9.33,9,11.94,21.44,5.82,27.78c-0.59,0.61-1.23,1.14-1.92,1.59
					c-6.56-0.52-14.56-4.44-21.49-11.12s-11.14-14.54-11.9-21.07c0.43-0.71,0.93-1.37,1.52-1.98
					C887.62,531.44,900.14,533.59,909.47,542.59z"/><path fill="#123e5b" d="M820.93,475.84c16.46,6.05,27.03,18.51,23.6,27.84c-1.31,3.57-4.47,6.15-8.79,7.64
					c-7,2.45-17.04,2.04-27.23-1.71s-18.1-9.93-21.85-16.33c-2.32-3.93-3.06-7.95-1.75-11.51
					C788.34,472.45,804.46,469.79,820.93,475.84z"/><path fill="#245277" d="M818.37,482.8c13.72,5.04,22.06,16.69,18.63,26.02c-0.33,0.89-0.75,1.73-1.26,2.51
					c-7,2.45-17.04,2.04-27.23-1.71s-18.1-9.93-21.85-16.33c0.12-0.93,0.34-1.84,0.67-2.73
					C790.76,481.23,804.65,477.76,818.37,482.8z"/><path fill="#123e5b" d="M840.88,559.61c15.1,9.6,20.21,28.57,11.43,42.38c-3.36,5.28-8.25,9.02-13.84,11.1
					c-9.09,3.41-20.05,2.45-29.38-3.49s-14.85-15.46-15.62-25.13c-0.49-5.95,0.83-11.97,4.19-17.24
					C806.43,553.42,825.79,550.01,840.88,559.61z"/><path fill="#245277" d="M834.33,569.9c12.58,8,15.66,25.68,6.88,39.48c-0.84,1.32-1.76,2.56-2.74,3.71
					c-9.09,3.41-20.05,2.45-29.38-3.49s-14.85-15.46-15.62-25.13c0.62-1.38,1.35-2.73,2.2-4.06
					C804.44,566.6,821.75,561.9,834.33,569.9z"/><path fill="#999" d="M572.43,587.19c0,0,45.34-123.07,151.42-137.94C743.37,481.51,642.06,464.65,572.43,587.19z"/><ellipse cx="756.24" cy="449.24" fill="#999" rx="14.46" ry="8.15" transform="rotate(-4.133 756.503 449.655)"/></g></svg>