<svg xmlns="http://www.w3.org/2000/svg" data-name="Layer 1" viewBox="0 0 168 168"><path fill="#2d4356" d="M20.30471 8a3 3 0 1 0-3-3A3.00344 3.00344 0 0 0 20.30471 8zm0-4.5a1.5 1.5 0 1 1-1.5 1.5A1.50148 1.50148 0 0 1 20.30471 3.5zM157.58056 48.48023a2 2 0 1 0 2 2A2.00229 2.00229 0 0 0 157.58056 48.48023zm0 3a1 1 0 1 1 1-1A1.001 1.001 0 0 1 157.58056 51.48023zM48 12a2 2 0 1 0 2 2A2.00229 2.00229 0 0 0 48 12zm0 3a1 1 0 1 1 1-1A1.001 1.001 0 0 1 48 15zM147.8564 3a2 2 0 1 0 2 2A2.00229 2.00229 0 0 0 147.8564 3zm0 3a1 1 0 1 1 1-1A1.001 1.001 0 0 1 147.8564 6zM6 33.99969a2 2 0 1 0-2 2A2.00229 2.00229 0 0 0 6 33.99969zm-3 0a1 1 0 1 1 1 1A1.001 1.001 0 0 1 3 33.99969z"/><polygon fill="#0bceb2" points="10.888 52.968 12.375 51.012 11.436 50.48 10.481 52.67 10.45 52.67 9.48 50.496 8.525 51.043 9.996 52.952 9.996 52.984 7.695 52.686 7.695 53.75 10.011 53.453 10.011 53.484 8.525 55.393 9.416 55.956 10.434 53.75 10.465 53.75 11.404 55.94 12.39 55.377 10.888 53.5 10.888 53.468 13.25 53.75 13.25 52.686 10.888 52.999 10.888 52.968"/><polygon fill="#0bceb2" points="81.388 5.153 80.531 6.252 81.045 6.577 81.631 5.306 81.649 5.306 82.189 6.568 82.757 6.243 81.892 5.162 81.892 5.144 83.252 5.306 83.252 4.694 81.892 4.874 81.892 4.856 82.748 3.73 82.208 3.423 81.658 4.684 81.64 4.684 81.082 3.432 80.531 3.747 81.379 4.847 81.379 4.865 80.054 4.694 80.054 5.306 81.388 5.135 81.388 5.153"/><polygon fill="#0bceb2" points="163.029 29.521 163.029 28.477 160.712 28.784 160.712 28.754 162.17 26.835 161.249 26.314 160.313 28.462 160.282 28.462 159.331 26.329 158.394 26.866 159.837 28.738 159.837 28.769 157.581 28.477 157.581 29.521 159.852 29.23 159.852 29.26 158.394 31.132 159.269 31.685 160.267 29.521 160.297 29.521 161.218 31.669 162.185 31.117 160.712 29.275 160.712 29.245 163.029 29.521"/><polygon fill="#0bceb2" points="108.351 15.788 109.609 14.133 108.815 13.683 108.008 15.536 107.981 15.536 107.16 13.696 106.352 14.16 107.597 15.775 107.597 15.801 105.65 15.55 105.65 16.45 107.61 16.199 107.61 16.225 106.352 17.84 107.106 18.317 107.968 16.45 107.994 16.45 108.788 18.303 109.622 17.827 108.351 16.238 108.351 16.212 110.35 16.45 110.35 15.55 108.351 15.814 108.351 15.788"/><path fill="#0bceb2" d="M118.15387 156h-8.30774a2.00641 2.00641 0 0 0 0 4h8.30774a2.00641 2.00641 0 0 0 0-4zM58.15387 156H49.84613a2.00641 2.00641 0 0 0 0 4h8.30774a2.00641 2.00641 0 0 0 0-4zM104 156H64a2 2 0 0 0 0 4H79.94v2H72a2 2 0 0 0 0 4H97a2 2 0 0 0 0-4H88.06v-2H104a2 2 0 0 0 0-4zM47.96088 52.94141h-3.5V37.45306a.79147.79147 0 0 0-.21088-.55859.65311.65311 0 0 0-.49219-.22748H41.57227a.65292.65292 0 0 0-.49219.22748.79157.79157 0 0 0-.211.55859v1.419h-1.457a.65059.65059 0 0 0-.49225.22852.75728.75728 0 0 0-.21185.53223V41.2041H37.36908a.65417.65417 0 0 0-.4931.22845.78583.78583 0 0 0-.211.55762v2.17969a.7839.7839 0 0 0 .211.55762.65388.65388 0 0 0 .4931.22858h2.043a.65329.65329 0 0 0 .4942-.22858.79258.79258 0 0 0 .21088-.55762V42.877H40.751V52.94141h-3.3819a.6531.6531 0 0 0-.4931.22748.755.755 0 0 0-.211.53229v2.20514a.75318.75318 0 0 0 .211.53217.65068.65068 0 0 0 .4931.22852h10.5918a.65093.65093 0 0 0 .49323-.22852.75307.75307 0 0 0 .21088-.53217V53.70117a.75491.75491 0 0 0-.21088-.53229A.65335.65335 0 0 0 47.96088 52.94141zM89.2959 94.27441h-3.5V78.78607a.79163.79163 0 0 0-.21088-.55859A.65333.65333 0 0 0 85.09277 78H82.90717a.6533.6533 0 0 0-.49219.22748.79137.79137 0 0 0-.21088.55859v1.419h-1.457a.65088.65088 0 0 0-.49219.22852.75724.75724 0 0 0-.21185.53217v1.57135H78.7041a.65442.65442 0 0 0-.49323.22845A.78563.78563 0 0 0 78 83.32318v2.17969a.7838.7838 0 0 0 .21088.55762.65413.65413 0 0 0 .49323.22858h2.043a.65308.65308 0 0 0 .49414-.22858.79231.79231 0 0 0 .21088-.55762V84.21h.63379V94.27441H78.7041a.65306.65306 0 0 0-.49323.2276A.75452.75452 0 0 0 78 95.03418v2.20508a.75321.75321 0 0 0 .21088.53223A.65093.65093 0 0 0 78.7041 98H89.2959a.6508.6508 0 0 0 .49316-.22852A.75327.75327 0 0 0 90 97.23926V95.03418a.75458.75458 0 0 0-.21094-.53217A.65294.65294 0 0 0 89.2959 94.27441zM49.39551 121.69037h-1.54v-1.5722a.78915.78915 0 0 0-.211-.5567.693.693 0 0 0-.53406-.22845H38.07129a.70721.70721 0 0 0-.52252.22845.76747.76747 0 0 0-.22357.5567v1.4209H35.93549a.772.772 0 0 0-.77051.7597v2.20612a.72148.72148 0 0 0 .22461.54388.75436.75436 0 0 0 .5459.2149h2.1358a.76144.76144 0 0 0 .54688-.2149.7234.7234 0 0 0 .2226-.54388v-1.44629h7.67383v3.16888H44.9502a.734.734 0 0 0-.52148.21588.72306.72306 0 0 0-.22363.54492V128.585H42.665a.705.705 0 0 0-.52051.22852.73678.73678 0 0 0-.22357.53223V130.917h-1.54a.69807.69807 0 0 0-.53418.22852.75768.75768 0 0 0-.211.53217v1.59674H38.07129a.75008.75008 0 0 0-.74609.76074v1.57123H35.93549a.77382.77382 0 0 0-.77051.7608v2.20508a.772.772 0 0 0 .77051.76074h13.46a.77018.77018 0 0 0 .76947-.76074v-2.20508a.772.772 0 0 0-.76947-.7608H41.25v-.81049h1.415a.70867.70867 0 0 0 .52148-.22852.73371.73371 0 0 0 .22375-.53223v-1.57227h1.54a.69579.69579 0 0 0 .53418-.22748.79443.79443 0 0 0 .21094-.55774v-1.57129h1.58887a.74877.74877 0 0 0 .74512-.76068V127.749h1.36621a.77008.77008 0 0 0 .76947-.76068v-4.53711a.7252.7252 0 0 0-.22357-.5459A.75993.75993 0 0 0 49.39551 121.69037zM91.17871 39.02441H89.53607V37.45306a.77252.77252 0 0 0-.79486-.78607h-9.6416a.7845.7845 0 0 0-.55658.22748.74972.74972 0 0 0-.23932.55859v1.419H76.82227a.80819.80819 0 0 0-.583.22852A.71593.71593 0 0 0 76 39.63281v2.20508a.70445.70445 0 0 0 .23926.5459.83567.83567 0 0 0 .583.21478h2.27734a.84486.84486 0 0 0 .584-.21478.706.706 0 0 0 .2373-.5459V40.39355h8.18549v3.16791h-6.4101a.80608.80608 0 0 0-.5567.21582.70327.70327 0 0 0-.23822.545v2.205a.71211.71211 0 0 0 .23822.53229.78005.78005 0 0 0 .5567.22852h6.4101v5.65332H79.76166V51.49506a.70533.70533 0 0 0-.2392-.53119.77489.77489 0 0 0-.55566-.2276H76.82227a.80743.80743 0 0 0-.583.2276A.71232.71232 0 0 0 76 51.49506V53.5752a.71232.71232 0 0 0 .23926.53119.80743.80743 0 0 0 .583.2276h1.64252v1.57233a.7267.7267 0 0 0 .22473.53217.76274.76274 0 0 0 .57025.22852h9.667a.77659.77659 0 0 0 .55762-.22852.71437.71437 0 0 0 .2373-.53217V54.46088h1.457a.80918.80918 0 0 0 .58295-.22748A.71186.71186 0 0 0 92 53.70117V46.832a.74132.74132 0 0 0-.23834-.55756.8098.8098 0 0 0-.58295-.22852h-1.457V45.083h1.457a.81386.81386 0 0 0 .58295-.22852A.71186.71186 0 0 0 92 44.32227V39.78418a.701.701 0 0 0-.23834-.544A.83786.83786 0 0 0 91.17871 39.02441zM91.17969 119.333H86.4375a.78.78 0 0 0-.55664.22845.74524.74524 0 0 0-.23828.55762v1.42H84a.77858.77858 0 0 0-.55573.22754.71494.71494 0 0 0-.23816.53217v1.57129H81.56348a.77553.77553 0 0 0-.79486.78625v1.57117h-1.669a.80983.80983 0 0 0-.55658.21588.7061.7061 0 0 0-.23834.54492v1.5976h-1.4834a.80674.80674 0 0 0-.582.2276A.71593.71593 0 0 0 76 129.3457v4.68945a.713.713 0 0 0 .23926.53223.808.808 0 0 0 .582.22852h11.2851v3.77637a.71559.71559 0 0 0 .23828.5332.80943.80943 0 0 0 .583.22754h2.252a.8083.8083 0 0 0 .582-.22754A.71543.71543 0 0 0 92 138.57227V120.11908a.74154.74154 0 0 0-.23834-.55762A.80933.80933 0 0 0 91.17969 119.333zM87.94727 130.791H80.05371v-.68457h1.50977a.79676.79676 0 0 0 .5556-.21582.701.701 0 0 0 .23932-.54486V127.749H84a.7808.7808 0 0 0 .55658-.22748.71559.71559 0 0 0 .23828-.5332V125.417H86.4375a.76616.76616 0 0 0 .56927-.22852.73667.73667 0 0 0 .22559-.53217v-1.4444h.7149zM136 86h-1.23145a8.9482 8.9482 0 0 0-1.25-2.93359 1.99674 1.99674 0 0 0-2.586-2.58594A8.94058 8.94058 0 0 0 128 79.23187V78a2 2 0 0 0-4 0v1.23187a8.94186 8.94186 0 0 0-2.93262 1.24908 1.99694 1.99694 0 0 0-2.58691 2.58643A8.9626 8.9626 0 0 0 117.23138 86H116a2 2 0 0 0 0 4h1.23138a8.96228 8.96228 0 0 0 1.24908 2.93256 1.99533 1.99533 0 0 0 2.58691 2.58643A8.94056 8.94056 0 0 0 124 96.76807V98a2 2 0 0 0 4 0V96.76807a8.938 8.938 0 0 0 2.93359-1.24951 1.99669 1.99669 0 0 0 2.58588-2.586A8.96543 8.96543 0 0 0 134.76855 90H136a2 2 0 0 0 0-4zm-10 7a5 5 0 1 1 5-5A5.00592 5.00592 0 0 1 126 93z"/><circle cx="127.001" cy="87" r="2" fill="#0bceb2"/><circle cx="2" cy="150" r="2" fill="#2d4356"/><path fill="#2d4356" d="M11 148H8a2 2 0 0 0 0 4h3a2 2 0 0 0 0-4zM160 148h-3a2 2 0 0 0 0 4h3a2 2 0 0 0 0-4z"/><circle cx="166" cy="150" r="2" fill="#2d4356"/><path fill="#2d4356" d="M150.72131,148H147.65a5.96038,5.96038,0,0,0,.35-2V30a6.00656,6.00656,0,0,0-6-6H26a6.00656,6.00656,0,0,0-6,6V146a5.96038,5.96038,0,0,0,.35,2H17.27869a2.017,2.017,0,1,0,0,4H150.72131a2.017,2.017,0,1,0,0-4ZM106.66986,28H142a2.00233,2.00233,0,0,1,2,2V65.3335H106.66986Zm0,41.3335H144v37.333H106.66986ZM65.335,28h37.33V65.3335H65.335Zm0,41.3335h37.33v37.333H65.335ZM24,30a2.00229,2.00229,0,0,1,2-2H61.33008V65.3335H24Zm0,39.3335H61.33008v37.333H24ZM26,148a2.00233,2.00233,0,0,1-2-2V110.6665H61.33008V148Zm39.335,0V110.6665h37.33V148Zm41.33484,0V110.6665H144V146a2.00237,2.00237,0,0,1-2,2Z"/></svg>