<svg xmlns="http://www.w3.org/2000/svg" viewBox="0 0 5500 4000" id="present"><g data-name="‘ëîé_1">
<path fill="#f08375" d="M2002.19615,1302.292c2.9437,47.1553,21.5171,96.3969,68.736,146.2143a466.22745,466.22745,0,0,0,46.4638,42.8291c10.3036,8.2817,20.5056,15.7311,30.4389,22.4382h.0382c12.0059,8.1024,23.6543,15.1041,34.7007,21.1455a405.51749,405.51749,0,0,0,51.7764,23.8851c24.2941,9.1389,39.5511,11.9421,39.5511,11.9421l301.8499-11.9421,42.0611-1.6641c.0379-5.5937-.0516-13.0946-.4864-22.221a554.267,554.267,0,0,0-11.84-89.1905c-19.6356-91.5196-69.8369-217.1004-196.5441-315.4432-226.3552-175.6668-354.035-37.3757-382.72,41.1139-9.4717,25.9331-17.8175,53.2734-21.8622,81.6383A240.63287,240.63287,0,0,0,2002.19615,1302.292Z">
</path>
<path fill="#f4a39a" d="M2002.19585,1302.28888c2.9455,47.1525,21.5125,96.4036,68.7422,146.2192a466.71793,466.71793,0,0,0,46.4572,42.8245l.021.0002c-13.3729-188.6957,192.4037-151.7934,192.4037-151.7934l-121.5992-137.1943S2029.23745,1147.71008,2002.19585,1302.28888Z"></path>
<path fill="#f08375" d="M2634.75925,1558.80418c0,1.0367.0256,1.9965.0385,2.8798l343.8589,9.2925s15.5521-2.8413,40.2306-12.1723a407.41669,407.41669,0,0,0,51.6736-23.8851,454.82378,454.82378,0,0,0,111.142-86.0415c93.4656-98.4579,74.8803-194.8417,44.9025-277.0688-28.6209-78.5152-156.2114-216.8958-382.6941-41.3691-128.4993,99.5964-178.4065,227.2252-197.5425,319.0397a552.07606,552.07606,0,0,0-11.1105,85.44C2634.75925,1544.99288,2634.69565,1553.08258,2634.75925,1558.80418Z"></path><path fill="#f4a39a" d="M3250.98585,1302.71228c-2.9775,47.1507-21.5786,96.3894-68.8417,146.1727a466.7288,466.7288,0,0,1-46.4861,42.7932h-.021c13.5005-188.6864-192.3009-151.9239-192.3009-151.9239l121.6923-137.1113S3224.04885,1148.11568,3250.98585,1302.71228Z"></path>
<path fill="#ee7465" d="M2692.73175 1513.953c2.1146-1.3595 273.0192-175.9162 333.1082-247.2825 53.8077-63.8975 77.8554-158.653-18.8612-139.9865v.0105a249.2104 249.2104 0 00-40.6683 12.0408c-105.765 40.1157-199.929 214.1249-245.1671 310.4541C2703.24735 1487.29378 2693.00455 1513.252 2692.73175 1513.953zM2559.87615 1513.91708s-125.1867-319.1119-273.3356-375.4118c-142.7399-54.2445-119.8956 56.2081-59.6164 127.8939C2287.20415 1338.085 2559.87615 1513.91708 2559.87615 1513.91708z"></path><path fill="#ea6757" d="M2692.73175 1513.953c2.1146-1.3595 273.0192-175.9162 333.1082-247.2825 53.8077-63.8975 77.8554-158.653-18.8612-139.9865v.0105c-.4298 1.8626 40.9003 145.8469-285.8354 322.4949C2703.24735 1487.29378 2693.00455 1513.252 2692.73175 1513.953zM2559.87155 1513.90768c-2.1131-1.3611-272.8998-176.1006-332.9402-247.5088-53.7647-63.9336-77.7475-158.7053 18.956-139.9731v.0105c.4285 1.8629-40.9988 145.8187 285.6164 322.6882C2549.37445 1487.24148 2559.60005 1513.20658 2559.87155 1513.90768z"></path><path fill="#ea6757" d="M2531.45485,1561.65888l189.6526.0615c0-.9764-.01-1.9526-.0513-2.918a94.81655,94.81655,0,0,0-189.5506,0C2531.46485,1559.74758,2531.45485,1560.70348,2531.45485,1561.65888Z"></path><rect width="1240.19" height="1240.189" x="2006.281" y="1673.618" fill="#f4a39a" transform="rotate(180 2626.375 2293.712)"></rect><rect width="1383.721" height="219.275" x="1934.515" y="1556.5" fill="#f4a39a" transform="rotate(-180 2626.375 1666.137)"></rect><rect width="130.253" height="1357.307" x="2561.249" y="1556.5" fill="#fff" transform="rotate(180 2626.375 2235.153)"></rect><rect width="1240.19" height="90.621" x="2006.28" y="1775.775" fill="#f08375" opacity=".4" transform="rotate(180 2626.375 1821.085)"></rect><path fill="#fff" d="M2098.89265,1847.72988v279.324h208.0365v-279.324a10.64461,10.64461,0,0,0-3.1158-7.5248l-93.3741-93.4208c-.0852-.0854-.1865-.1421-.2732-.2234l-.0005-186.0477h-14.5102v186.0477c-.0869.0813-.188.138-.2731.2234l-93.3738,93.4205A10.64415,10.64415,0,0,0,2098.89265,1847.72988Zm106.8588-68.0852a14.52068,14.52068,0,1,1-17.0809,17.0797A14.462,14.462,0,0,1,2205.75145,1779.64468Z"></path><path fill="#93b3df" d="M2163.87345,1907.78108a39.02676,39.02676,0,0,0-34.8445,21.4427h0l-.0003.0013a38.69994,38.69994,0,0,0-1.9649,4.5895c-19.3049,52.8263,75.8471,112.1512,75.8471,112.1512v-99.1476A39.03722,39.03722,0,0,0,2163.87345,1907.78108Z"></path><path fill="#739ed4" d="M2241.948 1907.78108a39.02725 39.02725 0 0134.8446 21.4427h0l.0003.0013a38.733 38.733 0 011.9649 4.5895c19.3049 52.8263-75.8469 112.1512-75.8469 112.1512v-99.1476A39.037 39.037 0 012241.948 1907.78108zM3050.45425 1884.82878c1.914 30.6626 13.9912 62.6813 44.6953 95.0747a303.12679 303.12679 0 0030.2125 27.8494c6.7001 5.3852 13.3339 10.2292 19.7928 14.5904h.0248c7.807 5.2685 15.3812 9.8214 22.564 13.7498a263.72587 263.72587 0 0033.6674 15.5313c15.797 5.9425 25.7181 7.765 25.7181 7.765l196.2758-7.765 27.35-1.0821c.0248-3.6373-.0334-8.5147-.3161-14.4492a360.4304 360.4304 0 00-7.6989-57.9958c-12.768-59.51-45.411-141.1681-127.8016-205.1149-147.1863-114.2264-230.2093-24.3034-248.8615 26.7339-6.1592 16.863-11.5859 34.6409-14.2158 53.0851A156.46953 156.46953 0 003050.45425 1884.82878z"></path><path fill="#93b3df" d="M3050.454,1884.82658c1.9154,30.6607,13.9886,62.686,44.6994,95.0783a303.46715,303.46715,0,0,0,30.2085,27.8462l.0137.0002c-8.6959-122.6983,125.1094-98.7027,125.1094-98.7027l-79.0694-89.2098S3068.03785,1784.31248,3050.454,1884.82658Z"></path><path fill="#739ed4" d="M3461.77485,2051.62408c0,.6741.0165,1.2986.0251,1.8729l223.5921,6.0422s10.1127-1.8475,26.1599-7.9151a264.86749,264.86749,0,0,0,33.6002-15.531,295.74487,295.74487,0,0,0,72.2696-55.9481c60.7754-64.0216,48.6904-126.6946,29.1975-180.1621-18.6104-51.0543-101.5754-141.0355-248.8445-26.9002-83.556,64.762-116.0079,147.7518-128.4508,207.4537a358.934,358.934,0,0,0-7.2246,55.5567C3461.77485,2042.64368,3461.73335,2047.90378,3461.77485,2051.62408Z"></path><path fill="#93b3df" d="M3862.47265,1885.10208c-1.9359,30.6593-14.0314,62.6765-44.7638,95.0478a303.51368,303.51368,0,0,1-30.2274,27.8262l-.0137-.0003c8.7786-122.6921-125.0425-98.7876-125.0425-98.7876l79.1297-89.1557S3844.95725,1784.57638,3862.47265,1885.10208Z"></path><path fill="#567fc0" d="M3499.47125 2022.46c1.3748-.884 177.529-114.3884 216.6015-160.794 34.9883-41.5491 50.6249-103.1632-12.2642-91.0254v.0068a162.04407 162.04407 0 00-26.4445 7.8293c-68.7729 26.0852-130.0026 139.2336-159.4185 201.871C3506.30875 2005.12488 3499.64825 2022.00428 3499.47125 2022.46zM3413.08265 2022.43688s-81.4021-207.5009-177.7352-244.1097c-92.8157-35.2721-77.9615 36.549-38.765 83.1622C3235.77915 1908.10288 3413.08265 2022.43688 3413.08265 2022.43688z"></path><path fill="#4466ae" d="M3499.47125 2022.46c1.3748-.884 177.529-114.3884 216.6015-160.794 34.9883-41.5491 50.6249-103.1632-12.2642-91.0254v.0068c-.2795 1.2112 26.595 94.8359-185.863 209.7003C3506.30875 2005.12488 3499.64825 2022.00428 3499.47125 2022.46zM3413.07935 2022.43068c-1.3739-.8851-177.4514-114.5086-216.4923-160.9413-34.9603-41.5725-50.5549-103.1974 12.3262-91.0167l-.0003.0068c.2787 1.2112-26.6592 94.8179 185.7206 209.8262C3406.254 2005.091 3412.90285 2021.97468 3413.07935 2022.43068z"></path><path fill="#567fc0" d="M3394.60155,2053.48048l123.3206.0399c0-.6347-.0065-1.2694-.0332-1.8973a61.654,61.654,0,0,0-123.2543,0C3394.608,2052.23758,3394.60155,2052.85928,3394.60155,2053.48048Z"></path><rect width="890.409" height="790.133" x="3011.118" y="2124.225" fill="#93b3df" transform="rotate(180 3456.323 2519.292)"></rect><rect width="993.46" height="139.702" x="2959.593" y="2049.609" fill="#93b3df" transform="rotate(180 3456.323 2119.46)"></rect><rect width="93.517" height="864.749" x="3409.565" y="2049.609" fill="#fff" transform="rotate(180 3456.323 2481.984)"></rect><g opacity=".5"><rect width="890.409" height="64.509" x="3011.118" y="2189.31" transform="rotate(180 3456.323 2221.565)" style="mix-blend-mode:multiply" fill="#93b3df" opacity=".3"></rect></g><path fill="#fff" d="M3651.75715,2260.60468v205.1979h152.8284v-205.1979a7.82,7.82,0,0,0-2.2889-5.5279l-68.5948-68.629c-.0625-.0628-.137-.1044-.2007-.1641l-.0003-136.675h-10.6595v136.675c-.0639.0597-.1381.1013-.2007.1641l-68.5946,68.6288A7.81994,7.81994,0,0,0,3651.75715,2260.60468Zm78.501-50.0169a10.66722,10.66722,0,1,1-12.5481,12.5471A10.624,10.624,0,0,1,3730.25815,2210.58778Z"></path><path fill="#f4a39a" d="M3699.49365,2304.71968a28.67024,28.67024,0,0,0-25.5977,15.7523h0l-.0002.001a28.459,28.459,0,0,0-1.4435,3.3715c-14.1818,38.8075,55.7191,82.3889,55.7191,82.3889v-72.8361A28.67762,28.67762,0,0,0,3699.49365,2304.71968Z"></path><path fill="#f08375" d="M3756.849,2304.71968a28.67032,28.67032,0,0,1,25.5976,15.7523h0l.0002.001a28.44248,28.44248,0,0,1,1.4435,3.3715c14.1818,38.8075-55.7189,82.3889-55.7189,82.3889v-72.8361A28.67747,28.67747,0,0,1,3756.849,2304.71968Z"></path><path fill="#86c8b2" d="M1608.48175,2267.27988c1.202,19.2556,8.7863,39.3628,28.0679,59.7053a190.35217,190.35217,0,0,0,18.973,17.489c4.2075,3.3818,8.3735,6.4237,12.4295,9.1625h.0156c4.9027,3.3085,9.6591,6.1676,14.1698,8.6346a165.59916,165.59916,0,0,0,21.1426,9.7534,105.00863,105.00863,0,0,0,16.1505,4.8763l123.2579-4.8763,17.1754-.6795c.0155-2.2842-.021-5.3471-.1986-9.0739a226.343,226.343,0,0,0-4.8348-36.4204c-8.018-37.3713-28.5173-88.6512-80.2572-128.8087-92.4305-71.7322-144.5675-15.2621-156.2808,16.7885-3.8679,10.5896-7.2758,21.7539-8.9273,33.3365A98.25728,98.25728,0,0,0,1608.48175,2267.27988Z"></path><path fill="#b1dacc" d="M1608.48155,2267.27848c1.2029,19.2544,8.7846,39.3657,28.0705,59.7076a190.57867,190.57867,0,0,0,18.9704,17.4869l.0086.0002c-5.4608-77.0525,78.5666-61.9837,78.5666-61.9837l-49.6542-56.0223S1619.524,2204.15738,1608.48155,2267.27848Z"></path><path fill="#86c8b2" d="M1866.78425,2372.02448c0,.4233.0103.8155.0157,1.1762l140.4121,3.7944a105.24,105.24,0,0,0,16.4279-4.9706,166.32242,166.32242,0,0,0,21.1004-9.7532,185.72507,185.72507,0,0,0,45.3841-35.1344c38.1659-40.2046,30.5768-79.5621,18.3356-113.1388-11.6871-32.0613-63.7877-88.568-156.2702-16.8929-52.4718,40.6695-72.851,92.7856-80.665,130.2774a225.41913,225.41913,0,0,0-4.5369,34.8887C1866.78425,2366.385,1866.75815,2369.68818,1866.78425,2372.02448Z"></path><path fill="#b1dacc" d="M2118.41565,2267.45148c-1.2157,19.2535-8.8115,39.3598-28.1109,59.6884a190.60666,190.60666,0,0,1-18.9823,17.4744l-.0086-.0002c5.5128-77.0485-78.5246-62.0369-78.5246-62.0369l49.6922-55.9883S2107.41625,2204.32308,2118.41565,2267.45148Z"></path><path fill="#5dbb9f" d="M1890.45685 2353.71c.8634-.5552 111.4853-71.834 136.0221-100.976 21.9721-26.0921 31.7916-64.7847-7.7017-57.1624v.0043a101.763 101.763 0 00-16.6067 4.9167c-43.1882 16.381-81.6394 87.4363-100.1121 126.7715C1894.75075 2342.82378 1890.56805 2353.42378 1890.45685 2353.71zM1836.20625 2353.69538s-51.1191-130.307-111.6147-153.2968c-58.2867-22.1502-48.9584 22.9522-24.3437 52.2245C1724.86275 2281.89558 1836.20625 2353.69538 1836.20625 2353.69538z"></path><path fill="#3fa98a" d="M1890.45685 2353.71c.8634-.5552 111.4853-71.834 136.0221-100.976 21.9721-26.0921 31.7916-64.7847-7.7017-57.1624v.0043c-.1755.7606 16.7013 59.5554-116.7188 131.6882C1894.75075 2342.82378 1890.56805 2353.42378 1890.45685 2353.71zM1836.20425 2353.69148c-.8628-.5558-111.4365-71.9094-135.9535-101.0684-21.9545-26.1068-31.7476-64.8062 7.7406-57.1569l-.0002.0042c.175.7606-16.7415 59.5441 116.6295 131.7673C1831.918 2342.80248 1836.09335 2353.40518 1836.20425 2353.69148z"></path><path fill="#5dbb9f" d="M1824.60045,2373.19028l77.4433.0251c0-.3986-.0041-.7972-.0208-1.1915a38.71769,38.71769,0,0,0-77.4017,0C1824.60455,2372.40978,1824.60045,2372.80018,1824.60045,2373.19028Z"></path><rect width="559.162" height="496.19" x="1583.779" y="2417.617" fill="#b1dacc" transform="rotate(180 1863.36 2665.712)"></rect><rect width="623.876" height="87.73" x="1551.423" y="2370.759" fill="#b1dacc" transform="rotate(180 1863.36 2414.624)"></rect><rect width="58.727" height="543.048" x="1833.997" y="2370.759" fill="#fff" transform="rotate(180 1863.36 2642.283)"></rect><rect width="559.162" height="40.511" x="1583.78" y="2458.489" transform="rotate(180 1863.36 2478.744)" style="mix-blend-mode:multiply" fill="#b1dacc" opacity=".5"></rect><polygon fill="#f4a39a" points="1345.935 2250.233 1384.968 2271.581 1345.935 2292.928 1324.587 2331.961 1303.239 2292.928 1264.205 2271.581 1303.239 2250.233 1324.587 2211.199 1345.935 2250.233"></polygon><polygon fill="#fad2cb" points="1227.237 2387.683 1246.753 2398.357 1227.237 2409.031 1216.563 2428.548 1205.889 2409.031 1186.372 2398.357 1205.889 2387.683 1216.563 2368.167 1227.237 2387.683"></polygon><polygon fill="#f4a39a" points="4160.881 1739.059 4204.475 1762.901 4160.881 1786.743 4137.038 1830.338 4113.196 1786.743 4069.601 1762.901 4113.196 1739.059 4137.038 1695.465 4160.881 1739.059"></polygon><path fill="#e35878" d="M4091.16065 2954.82178H1412.12635a20.50745 20.50745 0 01-20.5074-20.5075h0a20.50743 20.50743 0 0120.5074-20.5074h2679.0343a20.50745 20.50745 0 0120.5075 20.5074h0A20.50747 20.50747 0 014091.16065 2954.82178zM1295.025 2954.82178H1100.307a20.50745 20.50745 0 01-20.5074-20.5075h0a20.50743 20.50743 0 0120.5074-20.5074h194.718a20.50737 20.50737 0 0120.5074 20.5074h0A20.50739 20.50739 0 011295.025 2954.82178zM4399.69305 2954.82178h-218.7974a20.50739 20.50739 0 01-20.5074-20.5075h0a20.50737 20.50737 0 0120.5074-20.5074h218.7974a20.50743 20.50743 0 0120.5074 20.5074h0A20.50745 20.50745 0 014399.69305 2954.82178z"></path></g></svg>