<svg xmlns="http://www.w3.org/2000/svg" enable-background="new 0 0 50 50" viewBox="0 0 50 50"><path fill="#ce8686" d="M10 17v16H3c-1.7 0-3-1.3-3-3V20c0-1.7 1.3-3 3-3H10zM50 20v10c0 1.7-1.3 3-3 3h-7V17h7C48.7 17 50 18.3 50 20z" class="color86cea3 svgShape"></path><path d="M5.8 17H10v16H4c-.4-1.7-.5-3.5-.5-5.3C3.5 23.8 4.3 20.2 5.8 17zM46.5 27.7c0 1.8-.2 3.6-.5 5.3h-6V17h4.2C45.7 20.2 46.5 23.8 46.5 27.7z" opacity=".1" fill="#0b0a0a" class="color000000 svgShape"></path><path fill="#e5dfdf" d="M45,25c0,4.3-1.1,8.5-3.2,12c-0.4,0.7-0.9,1.4-1.3,2c-0.3,0.4-0.6,0.8-0.9,1.1L37.9,42H12.1l-1.6-1.9
	c-0.3-0.4-0.6-0.7-0.9-1.1c-0.5-0.6-0.9-1.3-1.3-2C6.1,33.5,5,29.3,5,25C5,16,9.9,8.2,17,4.8c0.7-0.3,1.3-0.6,2-0.8
	c1.9-0.7,3.9-1,6-1s4.1,0.3,6,1c0.7,0.2,1.3,0.5,2,0.8C40.1,8.2,45,16,45,25z" class="colordfe3e5 svgShape"></path><path fill="#ce8686" d="M33,4.8V12H17V4.8c0.7-0.3,1.3-0.6,2-0.8c1.9-0.7,3.9-1,6-1s4.1,0.3,6,1C31.7,4.2,32.3,4.5,33,4.8z" class="color86cea3 svgShape"></path><line x1="46" x2="46" y1="17" y2="7" fill="none" stroke="#515151" stroke-miterlimit="10" stroke-width="2" class="colorStroke515151 svgStroke"></line><circle cx="46" cy="6" r="3" fill="#ce8686" class="color86cea3 svgShape"></circle><path d="M49,6c0,1.7-1.3,3-3,3c-1.1,0-2-0.6-2.6-1.4C43.9,7.8,44.4,8,45,8c1.7,0,3-1.3,3-3c0-0.6-0.2-1.1-0.4-1.6
	C48.4,4,49,4.9,49,6z" opacity=".1" fill="#0b0a0a" class="color000000 svgShape"></path><path fill="#f2f2f2" d="M31,4v6H19V4c1.9-0.7,3.9-1,6-1S29.1,3.3,31,4z" class="colorf2f2f2 svgShape"></path><path fill="#ce8686" d="M41,25c0,4.3-1.7,8.1-4.4,11H13.4C10.7,33.1,9,29.3,9,25c0-8.8,7.2-16,16-16S41,16.2,41,25z" class="color86cea3 svgShape"></path><path fill="#993d3d" d="M39,25c0,3.3-1.2,6.5-3.3,9H14.3c-2.1-2.5-3.3-5.7-3.3-9c0-7.7,6.3-14,14-14c1.3,0,2.5,0.2,3.7,0.5
	C34.6,13.1,39,18.5,39,25z" class="color3d7699 svgShape"></path><path fill="#ffffff" d="M31.3,14.8c-0.4-0.1-0.8-0.3-1.1-0.4c-1-0.3-2.1-0.4-3.2-0.4c-6.6,0-12,5.4-12,12
	c0,2.1,0.6,4.2,1.6,6h-1.4c-1.5-2-2.2-4.5-2.2-7c0-6.6,5.4-12,12-12c1.1,0,2.1,0.1,3.2,0.4C29.3,13.7,30.3,14.2,31.3,14.8z" opacity=".2" class="colorffffff svgShape"></path><path d="M39 25c0 3.3-1.2 6.5-3.3 9H23c3.7-3.1 6-7.8 6-13 0-3.7-1.2-7.2-3.2-10 1 .1 2 .2 2.9.5C34.6 13.1 39 18.5 39 25zM41.8 37c-.4.7-.9 1.4-1.3 2H9.6c-.5-.6-.9-1.3-1.3-2H41.8z" opacity=".1" fill="#0b0a0a" class="color000000 svgShape"></path><path d="M45,25c0,4.3-1.1,8.5-3.2,12c-0.4,0.7-0.9,1.4-1.3,2c-0.3,0.4-0.6,0.8-0.9,1.1L37.9,42H12.1l-0.9-1h19.7
	l1.6-1.9c0.3-0.4,0.6-0.7,0.9-1.1c0.5-0.6,0.9-1.3,1.3-2c2.1-3.5,3.2-7.7,3.2-12c0-9-4.9-16.8-12-20.2c-0.6-0.3-1.3-0.6-2-0.8
	c0.3,0,0.6,0,1,0c2.1,0,4.1,0.3,6,1c0.7,0.2,1.3,0.5,2,0.8C40.1,8.2,45,16,45,25z" opacity=".1" fill="#0b0a0a" class="color000000 svgShape"></path><path fill="#e5dfdf" d="M47,46H3v-4c0-1.7,1.3-3,3-3h38c1.7,0,3,1.3,3,3V46z" class="colordfe3e5 svgShape"></path><path fill="#e5dfdf" d="M47,46H3v-4c0-1.7,1.3-3,3-3h38c1.7,0,3,1.3,3,3V46z" class="colordfe3e5 svgShape"></path><circle cx="14.5" cy="42.5" r="1.5" fill="#ce8686" class="color86cea3 svgShape"></circle><circle cx="21.5" cy="42.5" r="1.5" fill="#993d3d" class="color3d7699 svgShape"></circle><circle cx="28.5" cy="42.5" r="1.5" fill="#f55f5f" class="colorf56e5f svgShape"></circle><circle cx="35.5" cy="42.5" r="1.5" fill="#ffffff" class="colorffffff svgShape"></circle></svg>