<svg xmlns="http://www.w3.org/2000/svg" viewBox="0 0 512 512" id="Bank"><path fill="#6effc2" d="M283.577 242.416h16.359v115.656h-16.359zM212.063 242.416h16.359v115.656h-16.359zM355.092 242.416h16.359v115.656h-16.359z" class="colorffd96e svgShape"></path><path fill="#53f1aa" d="M128.098 388.916h255.804v-12.844H128.098z" class="colorf15c53 svgShape"></path><path fill="#6effc2" d="M450.455 187.166 259.277 86.075a11.55 11.55 0 0 1-.274-.132c-.168-.085-.307-.157-.446-.218l-1.331-.401.024.002c-.053-.009-.167-.022-.281-.038l-.966-.08-.266.013-.34.014-.282.041c-.124.017-.232.029-.338.046l-.397.097c-.078.019-.156.036-.234.056l-.729.257c-.073.032-.229.113-.385.192-.108.055-.21.103-.308.148L61.544 187.166a6.567 6.567 0 0 0-2.732 8.866 6.557 6.557 0 0 0 5.813 3.497 6.47 6.47 0 0 0 3.053-.764L256 99.185l188.322 99.58a6.557 6.557 0 0 0 8.867-2.732 6.57 6.57 0 0 0-2.734-8.867zM140.549 242.416h16.359v115.656h-16.359z" class="colorffd96e svgShape"></path><path fill="#52cc99" d="M256 151.367c-14.116 0-25.601 11.485-25.601 25.602S241.884 202.57 256 202.57s25.601-11.485 25.601-25.602-11.485-25.601-25.601-25.601zm2.139 40.144v4.847h-4.657v-4.515c-3.184-.143-6.272-.998-8.078-2.043l1.425-5.56c1.996 1.093 4.8 2.091 7.889 2.091 2.709 0 4.563-1.046 4.563-2.947 0-1.806-1.521-2.946-5.038-4.134-5.084-1.711-8.554-4.087-8.554-8.696 0-4.183 2.946-7.461 8.032-8.459v-4.515h4.656v4.183c3.185.143 5.322.808 6.891 1.567l-1.378 5.37c-1.235-.522-3.422-1.616-6.843-1.616-3.09 0-4.087 1.331-4.087 2.661 0 1.568 1.663 2.566 5.702 4.088 5.655 1.995 7.936 4.609 7.936 8.886-.001 4.229-2.994 7.841-8.459 8.792z" class="colordfdfde svgShape"></path><path fill="#53f1aa" d="M383.902 187.178 256 119.546l-127.902 67.631v37.239H383.902v-37.238zM256 220.57c-24.041 0-43.601-19.56-43.601-43.602s19.56-43.602 43.601-43.602 43.601 19.56 43.601 43.602S280.041 220.57 256 220.57z" class="colorf15c53 svgShape"></path><path fill="#4bda9a" d="M97.886 410.903v11.903a3.992 3.992 0 0 0 3.987 3.987h308.253a3.992 3.992 0 0 0 3.987-3.987v-11.903a3.992 3.992 0 0 0-3.987-3.987H101.873a3.992 3.992 0 0 0-3.987 3.987z" class="colorda534b svgShape"></path><path fill="#2a6249" d="M258.661 173.833c-4.039-1.521-5.702-2.52-5.702-4.088 0-1.33.997-2.661 4.087-2.661 3.421 0 5.607 1.094 6.843 1.616l1.378-5.37c-1.568-.76-3.706-1.425-6.891-1.567v-4.183h-4.656v4.515c-5.086.998-8.032 4.276-8.032 8.459 0 4.609 3.47 6.985 8.554 8.696 3.518 1.188 5.038 2.328 5.038 4.134 0 1.901-1.854 2.947-4.563 2.947-3.089 0-5.893-.998-7.889-2.091l-1.425 5.56c1.806 1.045 4.895 1.9 8.078 2.043v4.515h4.657v-4.847c5.465-.951 8.458-4.563 8.458-8.792.001-4.277-2.28-6.891-7.935-8.886z" class="color421337 svgShape"></path><path fill="#2a6249" d="M458.87 171.254 267.503 70.063l-.075-.04a11.5 11.5 0 0 0-.499-.244 24.33 24.33 0 0 0-1.606-.737 18.232 18.232 0 0 0-.99-.367l-.235-.083c-.328-.12-.658-.235-.993-.336a21.893 21.893 0 0 0-1.261-.333l-.224-.054a17.392 17.392 0 0 0-.85-.195 24.435 24.435 0 0 0-1.357-.219l-.114-.017a18.094 18.094 0 0 0-.923-.117 23.072 23.072 0 0 0-1.171-.075l-.479 8.988.375-8.993a19.838 19.838 0 0 0-2.098-.005l-.104.005c-.435.018-.867.041-1.383.09-.253.027-.506.062-.757.099l-.078.011c-.496.067-.987.14-1.507.243-.253.051-.503.111-.753.173l-.222.054c-.43.103-.859.21-1.317.348-.315.096-.626.204-.935.317l-.228.081c-.35.12-.697.245-1.05.389-.61.25-1.146.508-1.58.725-.151.069-.302.141-.448.216L53.129 171.254c-11.972 6.332-16.561 21.222-10.23 33.191a24.514 24.514 0 0 0 21.726 13.083c3.975 0 7.939-.986 11.467-2.852l34.007-17.982v36.721a9 9 0 0 0 9 9h3.451v115.656h-3.451a9 9 0 0 0-9 9v21.844h-8.225c-12.124 0-21.987 9.863-21.987 21.987v11.903c0 12.124 9.863 21.987 21.987 21.987h308.253c12.124 0 21.987-9.863 21.987-21.987v-11.903c0-12.124-9.863-21.987-21.987-21.987h-8.224v-21.844a9 9 0 0 0-9-9h-3.451V242.416h3.451a9 9 0 0 0 9-9v-36.72l34.004 17.98a24.623 24.623 0 0 0 11.471 2.852 24.515 24.515 0 0 0 21.724-13.083c6.329-11.97 1.739-26.86-10.232-33.191zm-48.744 235.662a3.992 3.992 0 0 1 3.987 3.987v11.903a3.992 3.992 0 0 1-3.987 3.987H101.873a3.992 3.992 0 0 1-3.987-3.987v-11.903a3.992 3.992 0 0 1 3.987-3.987h308.253zm-73.034-182.5H128.099v-37.239L256 119.546l127.902 67.632v37.238h-46.81zm34.359 18v115.656h-16.359V242.416h16.359zm-34.359 0v115.656h-19.155V242.416h19.155zm-37.155 0v115.656h-16.359V242.416h16.359zm-34.36 0v115.656h-19.154V242.416h19.154zm-37.154 0v115.656h-16.359V242.416h16.359zm-34.36 0v115.656h-19.155V242.416h19.155zm-37.155 0v115.656h-16.359V242.416h16.359zm18 133.656H383.901v12.844H128.098v-12.844h46.81zm278.28-180.04a6.556 6.556 0 0 1-8.867 2.732L256 99.185l-188.323 99.58a6.557 6.557 0 0 1-8.866-2.733 6.569 6.569 0 0 1 2.732-8.866l191.18-101.092c.098-.045.199-.094.308-.148.156-.079.312-.16.385-.192l.729-.257c.078-.02.156-.038.234-.056l.397-.097c.105-.017.214-.029.338-.046l.282-.041.34-.014.266-.013.966.08c.114.016.229.029.281.038l-.024-.002 1.331.401c.14.061.278.133.446.218.091.045.183.089.274.132l191.178 101.091a6.564 6.564 0 0 1 2.734 8.864z" class="color421337 svgShape"></path><path fill="#2a6249" d="M256 133.367c-24.041 0-43.601 19.56-43.601 43.602S231.959 220.57 256 220.57s43.601-19.56 43.601-43.602-19.56-43.601-43.601-43.601zm0 69.203c-14.116 0-25.601-11.485-25.601-25.602s11.484-25.602 25.601-25.602 25.601 11.485 25.601 25.602S270.116 202.57 256 202.57z" class="color421337 svgShape"></path></svg>