<svg xmlns="http://www.w3.org/2000/svg" viewBox="0 0 51 51"><path fill="#2D2C2B" d="M34.484 25.839c3.142 8.836-1.474 18.546-10.31 21.687-5.67 2.016-11.698.838-16.12-2.598a16.885 16.885 0 0 1-5.568-7.712C-.656 28.379 3.96 18.67 12.796 15.528a16.902 16.902 0 0 1 8.945-.669 17.073 17.073 0 0 1 5.159 1.92 16.912 16.912 0 0 1 7.584 9.06z"/><path fill="#383736" d="M27.766 18.794c3.141 8.836-1.475 18.546-10.311 21.688A16.94 16.94 0 0 1 3.35 39.23a17.175 17.175 0 0 1-1.684-5.34C.56 26.063 5.061 18.278 12.796 15.527c1.645-.584 3.32-.9 4.978-.97a16.848 16.848 0 0 1 3.967.301 17.073 17.073 0 0 1 5.159 1.92c.327.644.617 1.316.866 2.015z"/><path fill="#434240" d="M17.774 14.558c1.107 7.825-3.395 15.61-11.13 18.36-1.645.586-3.32.902-4.978.971-1.107-7.825 3.395-15.61 11.13-18.36 1.645-.585 3.32-.902 4.978-.971z"/><path fill="#2D2C2B" d="m29.959 17.512-.557 2.577c-.357 1.653-3.041 2.475-5.997 1.836-2.954-.638-5.06-2.495-4.703-4.147l.557-2.578c-.357 1.653 1.749 3.51 4.703 4.148 2.955.638 5.64-.184 5.997-1.836z"/><path fill="#21201F" d="m19.259 15.2-.557 2.578c-.139.642.096 1.315.606 1.936l.557-2.578c-.51-.62-.745-1.293-.606-1.935z"/><path fill="#21201F" d="m19.865 17.136-.557 2.578c.548.665 1.415 1.27 2.484 1.711l.557-2.577c-1.07-.441-1.936-1.046-2.484-1.712zm5.192 2.384-.556 2.578c1.178.116 2.266-.003 3.12-.313l.556-2.578c-.854.31-1.941.43-3.12.313z"/><path fill="#2D2C2B" d="m28.177 19.207-.557 2.578c.955-.347 1.617-.932 1.782-1.696l.557-2.577c-.165.763-.827 1.348-1.782 1.695zm-4.215.14a9.492 9.492 0 0 1-1.613-.5l-.557 2.578a9.716 9.716 0 0 0 2.708.672l.557-2.577a9.712 9.712 0 0 1-1.095-.172z"/><ellipse cx="24.609" cy="16.356" fill="#434240" rx="3.061" ry="5.474" transform="rotate(-77.81 24.609 16.356)"/><path fill="#21201F" d="M24.963 14.714c-1.62-.35-3.094.101-3.29 1.008a.961.961 0 0 0-.02.207c.425-.028.893.005 1.374.109 1.499.323 2.599 1.219 2.602 2.068 1.008-.066 1.778-.478 1.915-1.116.196-.906-.96-1.925-2.58-2.276z"/><path fill="#2D2C2B" d="M25.629 18.106a4.908 4.908 0 0 1-1.336-.1l-.04-.009c-.714-.154-1.338-.438-1.796-.786a2.889 2.889 0 0 1-.173-.142c-.398-.35-.63-.75-.632-1.14a4.909 4.909 0 0 1 1.374.109l.033.007c.71.158 1.328.443 1.781.792.077.059.148.12.215.182.361.336.572.716.574 1.087z"/><path fill="#C4C2C0" d="M42.542 12.635a2.314 2.314 0 0 1-1.16 1.473.28.28 0 0 1-.305-.025 19.574 19.574 0 0 0-.964-.699 15.434 15.434 0 0 0-1.835-1.078c-2.225-1.1-4.373-1.395-6.412-.875-3.586.913-5.68 3.603-6.811 5.588a17.13 17.13 0 0 0-.368.68c-.062.121-.118.237-.172.347a3.774 3.774 0 0 1-.222-.04l-.04-.009a5.367 5.367 0 0 1-.508-.136 4.326 4.326 0 0 1-1.288-.65 17.932 17.932 0 0 1 .602-1.166c1.297-2.314 3.816-5.626 8.262-6.759 1.9-.484 3.847-.421 5.823.184 1.044.32 2.096.791 3.154 1.413.713.419 1.427.905 2.144 1.46a.278.278 0 0 1 .1.293z"/><path fill="#D6D4D2" d="M42.542 12.635a2.314 2.314 0 0 1-1.16 1.473.28.28 0 0 1-.305-.025 19.574 19.574 0 0 0-.964-.699 15.434 15.434 0 0 0-1.835-1.078c-2.225-1.1-4.373-1.395-6.412-.875-3.586.913-5.68 3.603-6.811 5.588a17.13 17.13 0 0 0-.368.68c-.062.121-.118.237-.172.347a3.774 3.774 0 0 1-.222-.04l-.04-.009a5.367 5.367 0 0 1-.508-.136l.07-.14c.124-.25.265-.522.427-.81 1.297-2.313 3.816-5.626 8.262-6.758 1.901-.484 3.847-.422 5.823.184 1.044.32 2.096.791 3.155 1.413.333.195.667.406 1.002.632.058.07.082.164.058.253z"/><path fill="#F25A5A" d="m49.5 11.015-7.582 2.1-.944 7.811-2.102-7.582-7.81-.944 7.581-2.102.946-7.81 2.101 7.581z"/><path fill="#FFD651" d="m45.72 16.387-5.313-3.009-4.805 3.768 3.007-5.314-3.768-4.805 5.314 3.008 4.805-3.768-3.007 5.314z"/><path fill="#FFF" d="M20.829 23.436a4.262 4.262 0 0 0-4.274 4.274 4.283 4.283 0 0 0-4.274-4.274 4.271 4.271 0 0 0 4.274-4.274 4.26 4.26 0 0 0 4.274 4.274z"/></svg>