<svg xmlns="http://www.w3.org/2000/svg" viewBox="0 0 128 128"><path fill="#33586d" d="M105.073,125.75H22.988a2.009,2.009,0,0,1-1.964-1.6c-4.812-23.4-4.06-41.716.536-54.721,3.31-9.4,8.62-16.03,15.28-19.81H91.23c6.66,3.78,11.97,10.41,15.28,19.81,4.586,13,5.347,31.318.526,54.722A2.008,2.008,0,0,1,105.073,125.75Z"/><path fill="#263d56" d="M106.51,69.43c-7.12,7.82-23.46,13.29-42.48,13.29S28.67,77.25,21.56,69.43c3.31-9.4,8.62-16.03,15.28-19.81H91.23C97.89,53.4,103.2,60.03,106.51,69.43Z"/><path fill="#3c7484" d="M100.022 13c-11.272-1.375-18.1 3-23.008 7.343L75.552 59.586c12 13.026 26.364 6.194 30.313-.681C108 55.188 112 51.5 116.44 50.563a32.139 32.139 0 0 1 6.7-.924 2.839 2.839 0 0 0 2.8-3.107C124.1 26.445 112.29 14.5 100.022 13zM50.986 20.343C46.079 16 39.25 11.625 27.978 13 15.71 14.5 3.9 26.445 2.057 46.532a2.839 2.839 0 0 0 2.8 3.107 32.139 32.139 0 0 1 6.7.924C16 51.5 20 55.188 22.135 58.905c3.949 6.875 18.308 13.707 30.313.681z"/><path fill="#33586d" d="M99.059 24.216a14.639 14.639 0 0 0-12.333 3.936l-.783 21.034c6.434 6.982 14.13 3.32 16.247-.365a9.338 9.338 0 0 1 5.669-4.471 17.159 17.159 0 0 1 3.591-.5 1.522 1.522 0 0 0 1.5-1.666C111.962 31.423 105.634 25.019 99.059 24.216zM41.274 28.152a14.639 14.639 0 0 0-12.333-3.936c-6.575.8-12.9 7.207-13.893 17.973a1.522 1.522 0 0 0 1.5 1.666 17.159 17.159 0 0 1 3.591.5 9.338 9.338 0 0 1 5.669 4.471c2.117 3.685 9.813 7.347 16.247.365z"/><path fill="#8dccca" d="M36.877 80.485a2.527 2.527 0 0 0 4.864.62c2.2-5.694 6.087-13.154 12.1-16.531L43.818 60.419C37.011 67.707 36.161 75.113 36.877 80.485zM84.182 60.419L74.158 64.574c6.014 3.377 9.9 10.837 12.1 16.531a2.527 2.527 0 0 0 4.864-.62C91.839 75.113 90.989 67.707 84.182 60.419z"/><path fill="#568f9e" d="M98.246,95.394c-.512-.049-1.006-.113-1.452-.178a2.263,2.263,0,0,1-1.927-2.28l.053-.877a1.933,1.933,0,0,0-2.659-1.918C85.88,92.86,80,90.65,78.693,85.881a21.513,21.513,0,0,1-.536-7A19.087,19.087,0,0,1,82.6,67.929c11.872-14.361,16.288-32.192,13.2-41.047C91.161,13.544,79.922-.78,65.851,4.663a5.107,5.107,0,0,1-3.7,0C48.078-.78,36.839,13.544,32.194,26.882c-3.057,8.779.707,26.379,12.245,40.675a19.244,19.244,0,0,1,4,8.755c1.956,11.136,6.944,20.3,15.6,26.188,13.125,8.933,28.514,4,35.484-3.869A1.947,1.947,0,0,0,98.246,95.394Z"/><path fill="#3c7484" d="M57.505 76.025c-.513 0-.983-.015-1.394-.046a1.5 1.5 0 0 1 .226-2.992c3.681.282 12.287-.9 14.169-1.944a1.5 1.5 0 0 1 1.452 2.625C69.688 74.924 61.941 76.025 57.505 76.025zM59.932 84.981c-.124 0-.246 0-.367 0a1.5 1.5 0 0 1 .068-3c3.883.113 9.562-1.571 10.994-2.875a1.5 1.5 0 1 1 2.019 2.218C70.565 83.216 64.375 84.981 59.932 84.981zM64.707 94.667a1.5 1.5 0 0 1-.092-3c2.121-.133 6.058-.819 8.586-3.92a1.5 1.5 0 0 1 2.325 1.9C72.277 93.631 67.413 94.5 64.8 94.664 64.771 94.666 64.739 94.667 64.707 94.667z"/><circle cx="46.932" cy="36.173" r="2.817" fill="#33586d"/><path fill="#3c7484" d="M41.947,30.972a1.5,1.5,0,0,1-.983-2.634C43.855,25.83,48.6,26.563,48.8,26.6a1.5,1.5,0,0,1-.479,2.961c-.984-.154-3.879-.269-5.395,1.046A1.491,1.491,0,0,1,41.947,30.972Z"/><circle cx="81.068" cy="36.173" r="2.817" fill="#33586d"/><path fill="#3c7484" d="M86.053,30.972a1.491,1.491,0,0,1-.982-.367c-1.815-1.574-5.36-1.052-5.395-1.046A1.5,1.5,0,1,1,79.2,26.6c.2-.035,4.947-.768,7.839,1.74a1.5,1.5,0,0,1-.983,2.634Z"/></svg>