<svg xmlns="http://www.w3.org/2000/svg" enable-background="new 0 0 68 68" viewBox="0 0 68 68"><path fill="#5e7599" d="M64.0779495,35.9599609c0,16.6116524-13.466404,30.0780563-30.0780563,30.0780563
					S3.9218388,52.5716133,3.9218388,35.9599609S17.3882427,5.881906,33.9998932,5.881906
					S64.0779495,19.3483105,64.0779495,35.9599609z"/><path fill="#435e88" d="M64.0781631,35.9599609c0,16.6098633-13.4699745,30.0800781-30.0800819,30.0800781
					c-8.2797832,0-15.7797832-3.3500977-21.2197247-8.7602539l42.2299805-42.8398438
					C60.6081886,19.8999023,64.0781631,27.5200195,64.0781631,35.9599609z"/><path fill="#e5e8ef" d="M34.0000343,35.9599609h22.375c0-6.1689453-2.5092773-11.7626953-6.5610352-15.8144531
						L34.0000343,35.9599609L34.0000343,35.9599609z"/><path fill="#c175ff" d="M49.8139992,20.1455078c-4.0515137-4.0512695-9.6450195-6.5605469-15.8139648-6.5605469v22.375
						L49.8139992,20.1455078z"/><path fill="#e5e8ef" d="M34.0000343,35.9599609v-22.375l0,0c-6.1686993,0-11.7624493,2.5092773-15.8139629,6.5605469
						L34.0000343,35.9599609L34.0000343,35.9599609z"/><path fill="#c175ff" d="M56.3750343,35.9599609h-22.375l0,0l15.814209,15.8139648
						C53.865757,47.7226563,56.3750343,42.1289063,56.3750343,35.9599609L56.3750343,35.9599609z"/><path fill="#e5e8ef" d="M34.0000343,58.3349609c6.1689453,0,11.7626953-2.5092773,15.814209-6.5610352l-15.814209-15.8139648
						V58.3349609z"/><path fill="#c175ff" d="M34.0000343,35.9599609L18.1860714,20.1455078
						c-4.0517578,4.0517578-6.5610352,9.6455078-6.5610352,15.8144531H34.0000343L34.0000343,35.9599609z"/><path fill="#e5e8ef" d="M11.6250362,35.9599609L11.6250362,35.9599609c0,6.1689453,2.5092773,11.7626953,6.560791,15.8139648
						l15.8142071-15.8139648H11.6250362z"/><path fill="#c175ff" d="M34.0000343,35.9599609L34.0000343,35.9599609L18.1858273,51.7739258
						c4.0515137,4.0517578,9.6452637,6.5610352,15.8142071,6.5610352l0,0V35.9599609L34.0000343,35.9599609z"/><path fill="#ffd80c" d="M40.2383156,7.9599609c0,2.8100586-3.170166,10.6801758-4.9902344,14.3198242
					c-0.5097656,1.0302734-1.9799805,1.0302734-2.5,0c-1.8198223-3.6396484-4.9799786-11.5097656-4.9799786-14.3198242
					c0-3.9399414,2.7900391-6,6.2299786-6C37.4382668,1.9599609,40.2383156,4.0200195,40.2383156,7.9599609z"/><path fill="#ffbe00" d="M40.2383156,7.9599609c0,2.8100586-3.170166,10.6801758-4.9902344,14.3198242
					c-0.5097656,1.0302734-1.9799805,1.0302734-2.5,0c1.8200684-3.6396484,4.9902344-11.5097656,4.9902344-14.3198242
					c0-3.4501953-2.1401367-5.4599609-4.9799805-5.8999023c0.3999023-0.0698242,0.8198242-0.1000977,1.2397461-0.1000977
					C37.4382668,1.9599609,40.2383156,4.0200195,40.2383156,7.9599609z"/><circle cx="34.003" cy="7.506" r="2.5" fill="#fff"/></svg>