<svg xmlns="http://www.w3.org/2000/svg" width="163.839" height="163.839" fill-rule="evenodd" clip-rule="evenodd" image-rendering="optimizeQuality" shape-rendering="geometricPrecision" text-rendering="geometricPrecision" viewBox="0 0 1707 1707" id="playing-cards"><path fill="#ccc" d="M365 1707c-54,0 -100,-41 -108,-95l-181 -1378c-8,-59 35,-114 94,-121l168 -21c12,-1 23,8 23,20l0 1304c0,32 23,60 55,67 9,2 15,9 16,18 3,31 28,57 60,61l364 45c23,3 23,37 0,40l-491 60z"></path><path fill="#b8b8b8" d="M382 1465c9,9 21,15 34,18 9,2 15,9 16,18 3,31 28,57 60,61l364 45c23,3 23,37 0,40l-111 13 -262 -32c-42,-5 -79,-30 -101,-67 -16,-27 -28,-72 0,-96z"></path><path fill="#b8b8b8" d="M295 98l43 -6c12,-1 23,8 23,20l0 1304c0,32 23,60 55,67 9,2 15,9 16,18 2,20 13,39 30,50l-33 0c-74,0 -135,-61 -135,-135l0 -1308c0,-3 0,-7 1,-10z"></path><path fill="#a6a6a6" d="M382 1465c9,9 21,15 34,18 9,2 15,9 16,18 2,20 13,39 30,50l-33 0c-20,0 -40,-5 -57,-13 -9,-25 -11,-55 10,-73z"></path><path fill="#ccc" d="M1342 1707l-855 -105c-92,-11 -120,-129 -71,-119 18,4 775,1 861,1 38,0 69,-30 69,-68l0 -1304c0,-12 10,-21 22,-20l169 21c59,7 102,62 94,121l-182 1378c-7,54 -53,95 -107,95z"></path><path fill="#b8b8b8" d="M406 1549c-21,-35 -18,-72 10,-66 18,4 775,1 861,1 38,0 69,-30 69,-68l0 -1304c0,-12 10,-21 22,-20l44 6c0,3 0,7 0,10l0 1308c0,74 -60,135 -135,135l-848 0c-8,0 -15,-1 -23,-2z"></path><path fill="#e6e6e6" d="M1277 1524l-848 0c-59,0 -108,-48 -108,-108l0 -1308c0,-59 49,-108 108,-108l848 0c60,0 109,49 109,108l0 1308c0,60 -49,108 -109,108z"></path><path fill="#f13631" d="M853 997c-5 0-10-2-14-6-113-114-257-180-257-318 0-136 184-211 271-72 88-139 272-64 272 72 0 138-144 204-258 318-3 4-9 6-14 6zM571 363c-6 0-11-2-15-6-55-55-127-89-127-161 0-75 95-109 142-53 46-56 141-22 141 53 0 72-72 106-127 161-4 4-9 6-14 6zM1136 1438c-5 0-10-2-14-6-56-56-128-89-128-161 0-75 95-109 142-53 47-56 142-22 142 53 0 72-72 106-128 161-4 4-9 6-14 6zM1235 710c-11 0-20-9-20-20l0-533c0-27 40-27 40 0l0 533c0 11-9 20-20 20zM1235 898c-11 0-20-9-20-20l0-80c0-26 40-26 40 0l0 80c0 11-9 20-20 20zM726 1385l-277 0c-26 0-26-40 0-40l277 0c27 0 27 40 0 40zM859 1385c-28 0-62 6-62-20 0-26 34-20 62-20 26 0 26 40 0 40z"></path></svg>