<svg xmlns="http://www.w3.org/2000/svg" enable-background="new 0 0 64 64" viewBox="0 0 64 64" id="224604"><rect width="24" height="2" x="20" y="24" fill="#0b0a0a" class="color333333 svgShape"></rect><path fill="#0b0a0a" d="M52.589 63H44v-2c0-2.817-1.346-5.509-3.601-7.2l1.201-1.6C44.355 54.267 46 57.557 46 61h5.411l2.972-5.349C55.44 53.748 56 51.59 56 49.412c0-4.306-2.139-8.302-5.722-10.691l-5.833-3.889 1.109-1.664 5.833 3.889C55.528 39.817 58 44.436 58 49.412c0 2.518-.646 5.011-1.869 7.211L52.589 63zM20 63h-8.589l-3.542-6.378C6.646 54.423 6 51.929 6 49.412c0-4.976 2.472-9.595 6.612-12.355l5.833-3.889 1.109 1.664-5.833 3.889C10.139 41.109 8 45.106 8 49.412c0 2.179.56 4.336 1.617 6.239L12.589 61H18c0-3.443 1.645-6.733 4.399-8.8l1.201 1.6C21.346 55.491 20 58.183 20 61V63z" class="color333333 svgShape"></path><path fill="#f94848" d="M28.999,55H27c-4.963,0-9-4.037-9-9V29c0-11.691,5.326-28,14-28s14,16.309,14,28v17    c0,4.963-4.037,9-9,9h-2H28.999z" class="colorf9ba48 svgShape"></path><rect width="2" height="20" x="31" y="9" fill="#0b0a0a" class="color333333 svgShape"></rect><rect width="2" height="9" x="31" y="40" fill="#0b0a0a" class="color333333 svgShape"></rect><rect width="2" height="27" x="21" y="25" fill="#0b0a0a" class="color333333 svgShape"></rect><rect width="2" height="27" x="41" y="25" fill="#0b0a0a" class="color333333 svgShape"></rect><path fill="#0b0a0a" d="M32 38c-2.757 0-5-2.243-5-5s2.243-5 5-5 5 2.243 5 5S34.757 38 32 38zM32 30c-1.654 0-3 1.346-3 3s1.346 3 3 3 3-1.346 3-3S33.654 30 32 30zM36 63h-8V52c0-2.206 1.794-4 4-4s4 1.794 4 4V63zM30 61h4v-9c0-1.103-.897-2-2-2s-2 .897-2 2V61z" class="color333333 svgShape"></path><rect width="2" height="27" x="61" y="2" fill="#0b0a0a" class="color333333 svgShape"></rect><rect width="2" height="2" x="61" y="31" fill="#0b0a0a" class="color333333 svgShape"></rect><rect width="2" height="28" x="1" y="6" fill="#0b0a0a" class="color333333 svgShape"></rect><rect width="2" height="2" x="1" y="36" fill="#0b0a0a" class="color333333 svgShape"></rect><rect width="2" height="23" x="8" y="2" fill="#0b0a0a" class="color333333 svgShape"></rect><rect width="2" height="2" x="8" y="27" fill="#0b0a0a" class="color333333 svgShape"></rect><rect width="2" height="18" x="52" y="4" fill="#0b0a0a" class="color333333 svgShape"></rect><rect width="2" height="2" x="52" y="24" fill="#0b0a0a" class="color333333 svgShape"></rect></svg>