<svg xmlns="http://www.w3.org/2000/svg" enable-background="new 0 0 50 50" viewBox="0 0 50 50"><path fill="#D75548" d="M23.2,34.5l-2.5,6l-0.9,2.2l-0.7,1.6l-1.8,4.4c-0.2,0.4-0.7,0.4-0.9,0.1l-2.3-3.5
					C14,45.1,13.8,45,13.6,45l-4.1,0.8c-0.4,0.1-0.7-0.3-0.6-0.7L9.8,43h0l0.9-2.2h0l0.6-1.6l0.9-2.2l2.5-6c0.1,0,0.2,0.1,0.3,0.1
					l4,0.9l0.3,0.1l3.4,2.2C22.9,34.3,23.1,34.4,23.2,34.5z"/><polygon fill="#FFCA67" points="19.2 44.3 18.3 46.5 15.2 41.9 9.8 43 10.7 40.8 16.1 39.6"/><polygon fill="#FFCA67" points="20.8 40.5 19.9 42.7 16.8 38.1 11.4 39.2 12.3 36.9 17.7 35.8"/><path fill="#D75548" d="M40.5,45.9L36.4,45c-0.2-0.1-0.4,0-0.5,0.2l-2.3,3.5c-0.2,0.3-0.8,0.3-0.9-0.1l-0.9-2.2l-0.9-2.2
					l-0.7-1.6l-0.9-2.2l-2.5-6c0.2-0.1,0.3-0.2,0.5-0.3l3.4-2.2L31,32l3.9-0.9c0.1,0,0.2,0,0.3-0.1l2.5,6l0.9,2.2l0.7,1.6l0.9,2.2
					l0.9,2.2C41.3,45.5,40.9,46,40.5,45.9z"/><polygon fill="#FFCA67" points="30.8 44.3 31.7 46.5 34.8 41.9 40.2 43 39.3 40.8 33.9 39.6"/><polygon fill="#FFCA67" points="29.2 40.5 30.1 42.7 33.2 38.1 38.6 39.2 37.7 36.9 32.3 35.8"/><path fill="#E9715F" d="M41.3,20.2l-2.1,3.4c0,0,0,0,0,0c0,0.1-0.2,0.8-1,4.2c-0.4,1.6-1.6,2.8-3.2,3.2L31,32
			c-0.1,0-0.8,0.4-3.7,2.3c-1.4,0.9-3.1,0.9-4.5,0l-3.4-2.1c-0.1,0-0.9-0.3-4.2-1c-3.8-0.9-3.4-5.1-4.1-7.1c0,0,0,0,0,0
			c0-0.1-0.5-0.8-2.3-3.7c-0.9-1.4-0.9-3.1,0-4.5l2.2-3.4L11,12l0.9-4c0.4-1.6,1.6-2.8,3.2-3.2L19,3.9c0,0,0,0,0,0
			c0.1,0,0.8-0.4,3.7-2.3c1.4-0.9,3.2-0.9,4.5,0l3.4,2.1c-0.1,0,0,0,4.2,1c1.6,0.4,2.8,1.6,3.2,3.2L39,12c0,0.1,0.4,0.7,2.3,3.7
			C42.2,17.1,42.2,18.8,41.3,20.2z"/><path fill="#EFEFED" d="M35.9,17.9c0,6-4.9,10.9-10.9,10.9c-6,0-10.9-4.9-10.9-10.9C14.1,11.9,19,7,25,7C31,7,35.9,11.9,35.9,17.9
			z"/><path fill="#C7C7C7" d="M31.5,17.9c0,3.6-2.9,6.5-6.5,6.5c-3.6,0-6.5-2.9-6.5-6.5c0-3.6,2.9-6.5,6.5-6.5
			C28.6,11.4,31.5,14.3,31.5,17.9z"/></svg>