<svg xmlns="http://www.w3.org/2000/svg" width="163.839" height="163.839" fill-rule="evenodd" clip-rule="evenodd" image-rendering="optimizeQuality" shape-rendering="geometricPrecision" text-rendering="geometricPrecision" viewBox="0 0 4335 4335" id="telegram"><path fill="#ccc" d="M2148 125c1100 0 1992 892 1992 1992s-892 1992-1992 1992S156 3217 156 2117 1048 125 2148 125z"></path><path fill="#fff" d="M2148 159c1081 0 1958 877 1958 1958s-877 1958-1958 1958S190 3198 190 2117 1067 159 2148 159z"></path><path fill="#1e96c8" d="M2148 421c937 0 1696 759 1696 1696s-759 1696-1696 1696S452 3054 452 2117 1211 421 2148 421z"></path><path fill="#fff" d="M1352 2034c-50-16-86-63-86-118 0-54 35-100 83-118 490-173 991-333 1470-530 15-6 31-9 47-9 69 0 125 56 125 125 0 14-2 28-7 41l-528 1504v1c-17 49-63 83-118 83-49 0-92-28-112-70l-302-617-572-292z"></path></svg>