<svg xmlns="http://www.w3.org/2000/svg" viewBox="0 0 64 64"><g data-name="Layer 77"><path fill="#dd6912" stroke="#f57e17" stroke-linecap="round" stroke-linejoin="round" stroke-width="2" d="M5 8.83L9.1 20.1l9-9L6.83 7A1.41 1.41 0 0 0 5 8.83zM59.66 8.63L55.39 20.1l-9-9L57.85 6.82A1.41 1.41 0 0 1 59.66 8.63z"/><path fill="#f57e17" stroke="#f57e17" stroke-linecap="round" stroke-linejoin="round" stroke-width="2" d="M39.26,9H24.74C15.41,9,7.6,15.53,6.67,24.11L4,40.83C3.39,46.85,9.92,52,18.2,52L32,50.67,45.8,52C54.08,52,60.61,46.85,60,40.83L57.33,24.11C56.4,15.53,48.59,9,39.26,9Z"/><path fill="#f57e17" stroke="#dd6912" stroke-linecap="round" stroke-linejoin="round" stroke-width="2" d="M46,47v4.65c0,2.64-2.51,4.64-5.32,4.52a6.1,6.1,0,0,0-2.54.37l-4.35,1.74a4.8,4.8,0,0,1-3.57,0l-4.35-1.74a6.1,6.1,0,0,0-2.54-.37c-2.82.12-5.32-1.88-5.32-4.52V47"/><path fill="#ffb74d" d="M18,41.28c0,4,6.27,3.72,14,3.72s14,.31,14-3.72S39.73,34,32,34,18,37.26,18,41.28Z"/><path fill="#4f4f4f" d="M32,45.95l6.12-4a1,1,0,0,0-.57-1.9H26.45a1,1,0,0,0-.57,1.9Z"/><circle cx="25.5" cy="27.5" r="1.5" fill="#4f4f4f"/><circle cx="38.5" cy="27.5" r="1.5" fill="#4f4f4f"/><path fill="none" stroke="#4f4f4f" stroke-linecap="round" stroke-linejoin="round" stroke-width="2" d="M32,45v0Z"/><path fill="none" stroke="#54596e" stroke-linecap="round" stroke-linejoin="round" d="M14.85 42A22.31 22.31 0 0 0 1 43M15 44.5s-10.07 2-11.33 5M49.15 42A22.31 22.31 0 0 1 63 43M49 44.5s10.07 2 11.33 5"/><path fill="none" stroke="#4f4f4f" stroke-linecap="round" stroke-linejoin="round" stroke-width="2" d="M23 48.75a4.5 4.5 0 0 0 9 0M32 48.75a4.5 4.5 0 0 0 9 0"/><path fill="#4f4f4f" d="M22,9h3a0,0,0,0,1,0,0v8.5A1.5,1.5,0,0,1,23.5,19h0A1.5,1.5,0,0,1,22,17.5V9a0,0,0,0,1,0,0Z" transform="rotate(-16.53 23.485 13.99)"/><path fill="#4f4f4f" d="M39.14,9h0a1.5,1.5,0,0,1,1.5,1.5V19a0,0,0,0,1,0,0h-3a0,0,0,0,1,0,0V10.5A1.5,1.5,0,0,1,39.14,9Z" transform="rotate(-163.47 39.136 14.002)"/><path fill="#4f4f4f" d="M10.39,21h2.22a0,0,0,0,1,0,0v8.89A1.11,1.11,0,0,1,11.5,31h0a1.11,1.11,0,0,1-1.11-1.11V21a0,0,0,0,1,0,0Z" transform="rotate(-70.12 11.498 25.997)"/><path fill="#4f4f4f" d="M13.2,30.7h0a1.11,1.11,0,0,1-1.42.67l-6.36-1,.76-2.09,6.36,1A1.11,1.11,0,0,1,13.2,30.7Z"/><path fill="#4f4f4f" d="M52.19,21h0a1.11,1.11,0,0,1,1.11,1.11V31a0,0,0,0,1,0,0H51.08a0,0,0,0,1,0,0V22.11A1.11,1.11,0,0,1,52.19,21Z" transform="rotate(-109.88 52.191 25.998)"/><path fill="#4f4f4f" d="M50.49 30.7h0a1.11 1.11 0 0 0 1.42.67l6.36-1-.76-2.09-6.36 1A1.11 1.11 0 0 0 50.49 30.7zM30 9h3a0 0 0 0 1 0 0V20.5A1.5 1.5 0 0 1 31.5 22h0A1.5 1.5 0 0 1 30 20.5V9A0 0 0 0 1 30 9z"/></g></svg>