<svg xmlns="http://www.w3.org/2000/svg" width="50" height="50" enable-background="new 0 0 50 50" viewBox="0 0 50 50" id="treasure-chest"><path fill="#C27455" d="M5,28l5-5h30l5,5C45,28,4.8,27.8,5,28z"></path><polygon fill="#C27455" points="5 28 10 23 40 23 45 28"></polygon><polygon points="5 28 10 23 40 23 45 28" opacity=".1"></polygon><path d="M8,43c-0.6,0-1-0.4-1-1V28.8l3.8-3.8h28.3l3.8,3.8V42c0,0.6-0.4,1-1,1H8z" opacity=".3"></path><path fill="#FDC457" d="M42,45H8c-1.7,0-3-1.3-3-3V28h40v14C45,43.7,43.7,45,42,45z"></path><rect width="34" height="11" x="8" y="31" fill="#C27455"></rect><polygon fill="#C27455" points="10 23 5 15 45 15 40 23"></polygon><polygon points="10 23 5 15 45 15 40 23" opacity=".3"></polygon><path fill="#FDC457" d="M45,15v-4c0-3.3-2.7-6-6-6H11c-3.3,0-6,2.7-6,6v4C5,15,44.8,15,45,15z"></path><path fill="#C27455" d="M8,12v-1.8C8,7.4,12.3,5,14,5h22c1.7,0,6,2.4,6,5.2V12H8z"></path><path fill="#FDC457" d="M30,13H20v-2c0-1.1,0.9-2,2-2h6c1.1,0,2,0.9,2,2V13z"></path><path fill="#FCDA4C" d="M10.5 27.2l2.4-4c.1-.2.3-.2.4-.2h3.4c.2 0 .3.1.4.2l2.4 4c.2.3 0 .8-.4.8h-8.2C10.5 28 10.3 27.6 10.5 27.2zM20.5 27.2l2.4-4c.1-.2.3-.2.4-.2h3.4c.2 0 .3.1.4.2l2.4 4c.2.3 0 .8-.4.8h-8.2C20.5 28 20.3 27.6 20.5 27.2zM30.5 27.2l2.4-4c.1-.2.3-.2.4-.2h3.4c.2 0 .3.1.4.2l2.4 4c.2.3 0 .8-.4.8h-8.2C30.5 28 30.3 27.6 30.5 27.2zM15.5 22.2l2.4-4c.1-.2.3-.2.4-.2h3.4c.2 0 .3.1.4.2l2.4 4c.2.3 0 .8-.4.8h-8.2C15.5 23 15.3 22.6 15.5 22.2zM25.5 22.2l2.4-4c.1-.2.3-.2.4-.2h3.4c.2 0 .3.1.4.2l2.4 4c.2.3 0 .8-.4.8h-8.2C25.5 23 25.3 22.6 25.5 22.2z"></path><path fill="#FFF" d="M39.3 21.8c-1.8.4-3 1.6-3.4 3.4 0 .2-.3.2-.4 0-.4-1.8-1.6-3-3.4-3.4-.2 0-.2-.3 0-.4 1.8-.4 3-1.6 3.4-3.4 0-.2.3-.2.4 0 .4 1.8 1.6 3 3.4 3.4C39.5 21.5 39.5 21.8 39.3 21.8zM19.7 22.9c-1.8.4-3 1.6-3.4 3.4 0 .2-.3.2-.4 0-.4-1.8-1.6-3-3.4-3.4-.2 0-.2-.3 0-.4 1.8-.4 3-1.6 3.4-3.4 0-.2.3-.2.4 0 .4 1.8 1.6 3 3.4 3.4C20 22.6 20 22.9 19.7 22.9z" opacity=".8"></path><path fill="#FDC457" d="M27,39h-4c-1.1,0-2-0.9-2-2v-6h8v6C29,38.1,28.1,39,27,39z"></path><path d="M27,33c0-1.1-0.9-2-2-2s-2,0.9-2,2c0,0.7,0.4,1.4,1,1.7V37h2v-2.3C26.6,34.4,27,33.7,27,33z" opacity=".5"></path></svg>