<svg xmlns="http://www.w3.org/2000/svg" viewBox="0 0 60 60"><path fill="#244766" d="M23 54v3a2 2 0 0 1-2 2h-8a2 2 0 0 1-2-2v-3zm26 0v3a2 2 0 0 1-2 2h-8a2 2 0 0 1-2-2v-3z"/><rect width="54" height="54" x="3" y="1" fill="#3a6789" rx="8"/><rect width="46" height="46" x="7" y="5" fill="#c0dadc" rx="4" transform="rotate(90 30 28)"/><circle cx="30" cy="28" r="13" fill="#86a9af"/><path fill="#56777d" d="M30 23a1 1 0 0 1-1-1v-2a1 1 0 0 1 2 0v2a1 1 0 0 1-1 1zm-4.242 1.757a1 1 0 0 1-.707-.292l-1.415-1.414a1 1 0 0 1 1.414-1.415l1.415 1.414a1 1 0 0 1-.707 1.707zM24 29h-2a1 1 0 0 1 0-2h2a1 1 0 0 1 0 2zm.343 5.657a1 1 0 0 1-.707-1.707l1.415-1.415a1 1 0 1 1 1.414 1.414l-1.415 1.415a1 1 0 0 1-.707.293zM30 37a1 1 0 0 1-1-1v-2a1 1 0 0 1 2 0v2a1 1 0 0 1-1 1zm5.657-2.343a1 1 0 0 1-.707-.293l-1.415-1.415a1 1 0 1 1 1.414-1.414l1.415 1.415a1 1 0 0 1-.707 1.707zM38 29h-2a1 1 0 0 1 0-2h2a1 1 0 0 1 0 2zm-3.758-4.243a1 1 0 0 1-.707-1.707l1.415-1.414a1 1 0 0 1 1.414 1.415l-1.415 1.414a1 1 0 0 1-.707.292z"/><circle cx="30" cy="28" r="6" fill="#efc43c"/></svg>